<svg width="38" height="35" viewBox="0 0 38 35" fill="none" xmlns="http://www.w3.org/2000/svg">
<path d="M23.1996 9.2316C23.1996 8.70107 23.4973 8.22153 23.8415 7.79944C24.195 7.36609 24.3996 6.85207 24.3996 6.30087C24.3996 4.75399 22.7879 3.5 20.7997 3.5C18.8115 3.5 17.1997 4.75399 17.1997 6.30087C17.1997 6.85207 17.4044 7.36609 17.7578 7.79944C18.1021 8.22153 18.3997 8.70107 18.3997 9.2316V9.2316C18.3997 9.77144 17.958 10.2075 17.4183 10.1934C15.1488 10.1343 12.9039 9.9832 10.6877 9.74406C10.9831 12.1304 11.1529 14.5524 11.191 17.0042C11.2001 17.5897 10.7246 18.0644 10.139 18.0645V18.0645C9.57075 18.0645 9.05712 17.7866 8.60503 17.4652C8.14088 17.1352 7.59033 16.9442 6.99994 16.9442C5.34312 16.9442 4 18.4489 4 20.3052C4 22.1614 5.34312 23.6662 6.99994 23.6662C7.59033 23.6662 8.14088 23.4752 8.60503 23.1452C9.05713 22.8238 9.57075 22.5459 10.139 22.5459V22.5459C10.633 22.5459 11.0246 22.9637 10.9853 23.4562C10.7834 25.9929 10.44 28.493 9.96257 30.9494C12.4138 31.236 14.9009 31.4146 17.4183 31.4802C17.9581 31.4943 18.3999 31.0582 18.3999 30.5183V30.5183C18.3999 29.9877 18.1022 29.5082 17.758 29.0861C17.4046 28.6527 17.1999 28.1387 17.1999 27.5875C17.1999 26.0406 18.8117 24.7867 20.7999 24.7867C22.7881 24.7867 24.3998 26.0406 24.3998 27.5875C24.3998 28.1387 24.1951 28.6527 23.8417 29.0861C23.4975 29.5082 23.1998 29.9877 23.1998 30.5183V30.5183C23.1998 31.016 23.6147 31.4138 24.1117 31.3869C27.0759 31.2266 29.995 30.9093 32.8596 30.4439C33.2871 28.1506 33.5979 25.8199 33.7861 23.4573C33.8253 22.9642 33.4333 22.546 32.9387 22.546V22.546C32.3705 22.546 31.8569 22.8239 31.4048 23.1453C30.9406 23.4752 30.3901 23.6663 29.7997 23.6663C28.1429 23.6663 26.7997 22.1615 26.7997 20.3053C26.7997 18.449 28.1429 16.9442 29.7997 16.9442C30.3901 16.9442 30.9406 17.1353 31.4048 17.4653C31.8569 17.7867 32.3705 18.0646 32.9387 18.0646V18.0646C33.5249 18.0646 34.0009 17.5894 33.9918 17.0033C33.9501 14.3197 33.7505 11.6718 33.4012 9.06734C30.3631 9.582 27.2628 9.9298 24.1115 10.1002C23.6145 10.1271 23.1996 9.72929 23.1996 9.2316V9.2316Z" stroke="white" stroke-width="1.5" stroke-linecap="round" stroke-linejoin="round"/>
</svg>
