<svg width="30" height="30" viewBox="0 0 30 30" fill="none" xmlns="http://www.w3.org/2000/svg">
<path d="M19.6876 13.1875V7.75C19.6876 5.24746 17.589 3.21875 15.0001 3.21875C12.4113 3.21875 10.3126 5.24746 10.3126 7.75V13.1875M24.5076 10.7796L26.0866 25.2796C26.174 26.0822 25.523 26.7812 24.6881 26.7812H5.31216C4.47727 26.7812 3.82624 26.0822 3.91364 25.2796L5.49259 10.7796C5.56792 10.0877 6.17145 9.5625 6.89111 9.5625H23.1091C23.8288 9.5625 24.4323 10.0877 24.5076 10.7796ZM10.7814 13.1875C10.7814 13.4378 10.5715 13.6406 10.3126 13.6406C10.0537 13.6406 9.84387 13.4378 9.84387 13.1875C9.84387 12.9372 10.0537 12.7344 10.3126 12.7344C10.5715 12.7344 10.7814 12.9372 10.7814 13.1875ZM20.1564 13.1875C20.1564 13.4378 19.9465 13.6406 19.6876 13.6406C19.4287 13.6406 19.2189 13.4378 19.2189 13.1875C19.2189 12.9372 19.4287 12.7344 19.6876 12.7344C19.9465 12.7344 20.1564 12.9372 20.1564 13.1875Z" stroke="white" stroke-width="1.5" stroke-linecap="round" stroke-linejoin="round"/>
</svg>
