<svg width="35" height="33" viewBox="0 0 35 33" fill="none" xmlns="http://www.w3.org/2000/svg">
<path d="M17.4999 6.875C18.477 6.875 19.4687 6.99875 20.4166 7.2325C23.0124 4.4825 27.752 3.3275 29.7791 4.125C31.8208 4.9225 29.1666 13.75 29.1666 13.75C29.9978 15.2213 30.6249 16.83 30.6249 18.48C30.6249 24.6125 24.7478 28.875 17.4999 28.875C10.252 28.875 4.37493 24.75 4.37493 18.48C4.37493 16.7613 5.1041 15.18 5.83326 13.75C5.83326 13.75 3.07701 4.9225 5.1041 4.125C7.13118 3.3275 11.9874 4.44125 14.5833 7.19125C15.54 6.98377 16.5183 6.8777 17.4999 6.875Z" stroke="white" stroke-width="2" stroke-linecap="round" stroke-linejoin="round"/>
<path d="M11.6667 19.25V19.9375" stroke="white" stroke-width="2" stroke-linecap="round" stroke-linejoin="round"/>
<path d="M23.3333 19.25V19.9375" stroke="white" stroke-width="2" stroke-linecap="round" stroke-linejoin="round"/>
<path d="M16.4062 22.3438H18.5938L17.5 23.375L16.4062 22.3438Z" stroke="white" stroke-width="2" stroke-linecap="round" stroke-linejoin="round"/>
</svg>
