<svg width="43" height="44" viewBox="0 0 43 44" fill="none" xmlns="http://www.w3.org/2000/svg">
<path d="M33.7209 11.325L27.3334 9.5C27.3334 10.8261 26.7188 12.0979 25.6248 13.0355C24.5309 13.9732 23.0471 14.5 21.5 14.5C19.9529 14.5 18.4692 13.9732 17.3752 13.0355C16.2813 12.0979 15.6667 10.8261 15.6667 9.5L9.27919 11.325C8.61913 11.5135 8.05941 11.898 7.70107 12.4092C7.34272 12.9203 7.20935 13.5245 7.32503 14.1125L8.17086 18.45C8.22639 18.7436 8.40227 19.0107 8.6669 19.2031C8.93153 19.3956 9.26756 19.5009 9.61461 19.5H12.75V32C12.75 33.375 14.0625 34.5 15.6667 34.5H27.3334C28.1069 34.5 28.8488 34.2366 29.3958 33.7678C29.9427 33.2989 30.25 32.663 30.25 32V19.5H33.3854C33.7325 19.5009 34.0685 19.3956 34.3332 19.2031C34.5978 19.0107 34.7737 18.7436 34.8292 18.45L35.675 14.1125C35.7907 13.5245 35.6573 12.9203 35.299 12.4092C34.9406 11.898 34.3809 11.5135 33.7209 11.325Z" stroke="white" stroke-width="2" stroke-linecap="round" stroke-linejoin="round"/>
</svg>
