<svg width="41" height="40" viewBox="0 0 41 40" fill="none" xmlns="http://www.w3.org/2000/svg">
<g clip-path="url(#clip0_1_318)">
<path d="M20.5 10.3177C18.377 8.00191 15.5734 6.59375 12.5 6.59375C11.0975 6.59375 9.75112 6.887 8.5 7.42594V30.5822C9.75112 30.0433 11.0975 29.75 12.5 29.75C15.5734 29.75 18.377 31.1582 20.5 33.474M20.5 10.3177C22.623 8.00191 25.4266 6.59375 28.5 6.59375C29.9025 6.59375 31.2489 6.887 32.5 7.42594V30.5822C31.2489 30.0433 29.9025 29.75 28.5 29.75C25.4266 29.75 22.623 31.1582 20.5 33.474M20.5 10.3177V33.474" stroke="white" stroke-width="1.5" stroke-linecap="round" stroke-linejoin="round"/>
</g>
<defs>
<clipPath id="clip0_1_318">
<rect x="0.5" y="0.5" width="40" height="39" rx="8" fill="white"/>
</clipPath>
</defs>
</svg>
