<svg width="31" height="30" viewBox="0 0 31 30" fill="none" xmlns="http://www.w3.org/2000/svg">
<path d="M15.5 5.15259L14.1561 3.77125C10.9979 0.525125 5.21402 1.64568 3.12567 5.72408C2.22082 7.49119 1.96214 9.98024 3.32798 13.125H1.30671C-2.6838 2.44285 9.11469 -3.43086 15.1706 2.14328C15.2824 2.24619 15.3922 2.353 15.5 2.46376C15.6077 2.35301 15.7176 2.2462 15.8294 2.1433C21.8853 -3.43087 33.6838 2.44284 29.6933 13.125H27.672C29.0379 9.98024 28.7792 7.49119 27.8743 5.72408C25.786 1.64568 20.0021 0.525125 16.8439 3.77125L15.5 5.15259Z" fill="white"/>
<path d="M4.64761 18.75H7.113C9.11199 20.9686 11.8462 23.3585 15.5 25.8649C19.1538 23.3585 21.888 20.9686 23.887 18.75H26.3524C23.98 21.6871 20.4656 24.8439 15.5 28.125C10.5344 24.8439 7.02003 21.6871 4.64761 18.75Z" fill="white"/>
<path d="M20.1204 6.21432C19.9716 5.8421 19.6025 5.60575 19.2021 5.62622C18.8017 5.6467 18.4587 5.91948 18.3486 6.30495L15.352 16.7931L12.6204 9.96432C12.4911 9.64107 12.1934 9.4161 11.8471 9.38004C11.5008 9.34399 11.1631 9.50279 10.97 9.79247L7.49827 15H1.4375C0.919733 15 0.5 15.4197 0.5 15.9375C0.5 16.4553 0.919733 16.875 1.4375 16.875H8C8.31346 16.875 8.60617 16.7183 8.78005 16.4575L11.5415 12.3154L14.6296 20.0357C14.7784 20.4079 15.1475 20.6443 15.5479 20.6238C15.9483 20.6033 16.2913 20.3305 16.4014 19.9451L19.398 9.4569L22.1296 16.2857C22.2719 16.6416 22.6167 16.875 23 16.875H29.5625C30.0803 16.875 30.5 16.4553 30.5 15.9375C30.5 15.4197 30.0803 15 29.5625 15H23.6347L20.1204 6.21432Z" fill="white"/>
</svg>
