<svg width="38" height="41" viewBox="0 0 38 41" fill="none" xmlns="http://www.w3.org/2000/svg">
<path d="M27.6147 26.661C32.362 24.0543 35.961 22.068 36.2712 21.9137C37.2636 21.3859 38.2883 19.9892 36.2712 18.9042C35.6199 18.5632 32.1135 16.6386 27.6147 14.157L21.3782 20.4553L27.6147 26.661Z" fill="#FFD900"/>
<path d="M21.3781 20.4551L1.52026 40.4688C1.98635 40.5306 2.51262 40.4071 3.13303 40.066C4.43559 39.353 18.2437 31.8124 27.6147 26.6623L21.3781 20.4551Z" fill="#F43249"/>
<path d="M21.378 20.4554L27.6146 14.188C27.6146 14.188 4.5296 1.58984 3.13289 0.845962C2.60662 0.534212 2.01707 0.441612 1.48926 0.534212L21.378 20.4554Z" fill="#00EE76"/>
<path d="M21.3781 20.4553L1.4893 0.53418C0.682147 0.720921 0 1.43393 0 2.89237V38.1109C0 39.4459 0.527815 40.4074 1.52017 40.5L21.3781 20.4553Z" fill="#00D3FF"/>
</svg>
