<svg width="46" height="46" viewBox="0 0 46 46" fill="none" xmlns="http://www.w3.org/2000/svg">
<path d="M38.7188 13.1563H32.5523C32.6209 13.0983 32.6912 13.042 32.758 12.9805C33.2919 12.5062 33.7221 11.9268 34.0219 11.2787C34.3216 10.6305 34.4844 9.92744 34.5 9.21349C34.5231 8.43245 34.3863 7.65493 34.098 6.92866C33.8098 6.2024 33.3761 5.54271 32.8237 4.99011C32.2712 4.4375 31.6117 4.00364 30.8855 3.71516C30.1593 3.42667 29.3818 3.28965 28.6008 3.31251C27.8865 3.3279 27.1831 3.49055 26.5347 3.7903C25.8862 4.09004 25.3065 4.52043 24.832 5.0545C24.1755 5.81545 23.6417 6.67423 23.25 7.59982C22.8583 6.67423 22.3245 5.81545 21.668 5.0545C21.1935 4.52043 20.6138 4.09004 19.9653 3.7903C19.3169 3.49055 18.6135 3.3279 17.8992 3.31251C17.1182 3.28965 16.3407 3.42667 15.6145 3.71516C14.8883 4.00364 14.2288 4.4375 13.6763 4.99011C13.1239 5.54271 12.6902 6.2024 12.402 6.92866C12.1137 7.65493 11.9769 8.43245 12 9.21349C12.0156 9.92744 12.1784 10.6305 12.4781 11.2787C12.7779 11.9268 13.2081 12.5062 13.742 12.9805C13.8088 13.0385 13.8791 13.0947 13.9477 13.1563H7.78125C7.03533 13.1563 6.31996 13.4526 5.79251 13.98C5.26507 14.5075 4.96875 15.2228 4.96875 15.9688V21.5938C4.96875 22.3397 5.26507 23.0551 5.79251 23.5825C6.31996 24.1099 7.03533 24.4063 7.78125 24.4063V35.6563C7.78125 36.4022 8.07757 37.1176 8.60501 37.645C9.13246 38.1724 9.84783 38.4688 10.5938 38.4688H35.9062C36.6522 38.4688 37.3675 38.1724 37.895 37.645C38.4224 37.1176 38.7188 36.4022 38.7188 35.6563V24.4063C39.4647 24.4063 40.18 24.1099 40.7075 23.5825C41.2349 23.0551 41.5312 22.3397 41.5312 21.5938V15.9688C41.5312 15.2228 41.2349 14.5075 40.7075 13.98C40.18 13.4526 39.4647 13.1563 38.7188 13.1563ZM26.9414 6.91779C27.1641 6.6719 27.4352 6.47471 27.7377 6.33859C28.0401 6.20246 28.3675 6.13035 28.6992 6.12677H28.7854C29.1741 6.1292 29.5585 6.2092 29.916 6.36209C30.2734 6.51498 30.5968 6.73767 30.867 7.01713C31.1373 7.29658 31.3491 7.62718 31.49 7.98953C31.6309 8.35189 31.698 8.73872 31.6875 9.12736C31.6839 9.45905 31.6118 9.78643 31.4757 10.0889C31.3396 10.3914 31.1424 10.6625 30.8965 10.8852C29.2283 12.3617 26.4598 12.882 24.7441 13.0649C24.9551 11.2033 25.5352 8.49806 26.9414 6.91779ZM15.6756 6.98107C16.2204 6.4363 16.9583 6.12865 17.7287 6.12501H17.8148C18.1465 6.12859 18.4739 6.2007 18.7764 6.33683C19.0789 6.47295 19.35 6.67015 19.5727 6.91603C21.0475 8.58243 21.5678 11.3457 21.7506 13.0543C20.042 12.8785 17.2787 12.3512 15.6123 10.8764C15.3664 10.6537 15.1692 10.3826 15.0331 10.0801C14.897 9.77764 14.8249 9.45026 14.8213 9.11857C14.8104 8.72347 14.8799 8.33028 15.0255 7.96285C15.1712 7.59541 15.3899 7.2614 15.6686 6.98107H15.6756ZM7.78125 15.9688H21.8438V21.5938H7.78125V15.9688ZM10.5938 24.4063H21.8438V35.6563H10.5938V24.4063ZM35.9062 35.6563H24.6562V24.4063H35.9062V35.6563ZM38.7188 21.5938H24.6562V15.9688H38.7188V21.5938Z" fill="#263238"/>
</svg>
