<svg width="45" height="45" viewBox="0 0 45 45" fill="none" xmlns="http://www.w3.org/2000/svg">
<path d="M7.85714 3C4.62656 3 2 5.49844 2 8.57143V36.4286C2 39.5016 4.62656 42 7.85714 42H16.8442V29.3076H12.0121V22.5H16.8442V19.5663C16.8442 11.9839 20.45 8.46696 28.2839 8.46696C29.7665 8.46696 32.329 8.74554 33.3815 9.02411V15.1875C32.8324 15.1353 31.8714 15.1004 30.6725 15.1004C26.8288 15.1004 25.3462 16.4846 25.3462 20.0799V22.5H32.9971L31.6792 29.3076H25.3371V42H37.1429C40.3734 42 43 39.5016 43 36.4286V8.57143C43 5.49844 40.3734 3 37.1429 3H7.85714Z" fill="white"/>
</svg>
