<svg width="25" height="25" viewBox="0 0 25 25" fill="none" xmlns="http://www.w3.org/2000/svg">
<path d="M12.5 25C19.4036 25 25 19.4036 25 12.5C25 5.59644 19.4036 0 12.5 0C5.59644 0 0 5.59644 0 12.5C0 19.4036 5.59644 25 12.5 25Z" fill="#1F1F1F"/>
<path d="M13.4723 11.7054L17.2017 7.08333H15.5371L12.6907 10.6134L10.1654 7.08333H6.54169L10.7699 12.9929L6.79627 17.9167H8.46135L11.5516 14.0871L14.2929 17.9167H17.9167L13.4723 11.7054ZM12.1831 13.3033L11.4004 12.2097L8.36169 7.96462H9.61294L12.0656 11.3863L12.8472 12.4805L16.107 17.0354H14.8557L12.1831 13.3033Z" fill="white"/>
</svg>
