<svg width="46" height="46" viewBox="0 0 46 46" fill="none" xmlns="http://www.w3.org/2000/svg">
<g clip-path="url(#clip0_1_335)">
<path d="M0.75 8.9375V11.75H27.4688V32.8438H18.8119C18.1847 30.4264 16.0106 28.625 13.4062 28.625C10.8019 28.625 8.62781 30.4264 8.00063 32.8438H6.375V25.8125H3.5625V35.6562H8.00063C8.62781 38.0736 10.8019 39.875 13.4062 39.875C16.0106 39.875 18.1847 38.0736 18.8119 35.6562H30.5006C31.1278 38.0736 33.3019 39.875 35.9062 39.875C38.5106 39.875 40.6847 38.0736 41.3119 35.6562H45.75V24.1869L45.6614 23.9661L42.8489 15.5286L42.5438 14.5625H30.2812V8.9375H0.75ZM2.15625 14.5625V17.375H14.8125V14.5625H2.15625ZM30.2812 17.375H40.5202L42.9375 24.582V32.8438H41.3119C40.6847 30.4264 38.5106 28.625 35.9062 28.625C33.3019 28.625 31.1278 30.4264 30.5006 32.8438H30.2812V17.375ZM3.5625 20.1875V23H12V20.1875H3.5625ZM13.4062 31.4375C14.977 31.4375 16.2188 32.6792 16.2188 34.25C16.2188 35.8208 14.977 37.0625 13.4062 37.0625C11.8355 37.0625 10.5938 35.8208 10.5938 34.25C10.5938 32.6792 11.8355 31.4375 13.4062 31.4375ZM35.9062 31.4375C37.477 31.4375 38.7188 32.6792 38.7188 34.25C38.7188 35.8208 37.477 37.0625 35.9062 37.0625C34.3355 37.0625 33.0938 35.8208 33.0938 34.25C33.0938 32.6792 34.3355 31.4375 35.9062 31.4375Z" fill="#263238"/>
</g>
<defs>
<clipPath id="clip0_1_335">
<rect x="0.75" y="0.5" width="45" height="45" rx="8" fill="white"/>
</clipPath>
</defs>
</svg>
