<svg width="46" height="46" viewBox="0 0 46 46" fill="none" xmlns="http://www.w3.org/2000/svg">
<path d="M40.452 18.5738C39.7893 17.8813 39.1037 17.1676 38.8453 16.54C38.6063 15.9652 38.5922 15.0125 38.5781 14.0896C38.5518 12.374 38.5236 10.4299 37.1719 9.07812C35.8201 7.72637 33.876 7.69824 32.1604 7.67188C31.2375 7.65781 30.2848 7.64375 29.71 7.40469C29.0842 7.14629 28.3687 6.46074 27.6762 5.79805C26.4633 4.63262 25.0852 3.3125 23.25 3.3125C21.4148 3.3125 20.0385 4.63262 18.8238 5.79805C18.1313 6.46074 17.4176 7.14629 16.79 7.40469C16.2188 7.64375 15.2625 7.65781 14.3396 7.67188C12.624 7.69824 10.6799 7.72637 9.32812 9.07812C7.97637 10.4299 7.95703 12.374 7.92188 14.0896C7.90781 15.0125 7.89375 15.9652 7.65469 16.54C7.39629 17.1658 6.71074 17.8813 6.04805 18.5738C4.88262 19.7885 3.5625 21.1648 3.5625 23C3.5625 24.8352 4.88262 26.2115 6.04805 27.4262C6.71074 28.1187 7.39629 28.8324 7.65469 29.46C7.89375 30.0348 7.90781 30.9875 7.92188 31.9104C7.94824 33.626 7.97637 35.5701 9.32812 36.9219C10.6799 38.2736 12.624 38.3018 14.3396 38.3281C15.2625 38.3422 16.2152 38.3563 16.79 38.5953C17.4158 38.8537 18.1313 39.5393 18.8238 40.202C20.0367 41.3674 21.4148 42.6875 23.25 42.6875C25.0852 42.6875 26.4615 41.3674 27.6762 40.202C28.3687 39.5393 29.0824 38.8537 29.71 38.5953C30.2848 38.3563 31.2375 38.3422 32.1604 38.3281C33.876 38.3018 35.8201 38.2736 37.1719 36.9219C38.5236 35.5701 38.5518 33.626 38.5781 31.9104C38.5922 30.9875 38.6063 30.0348 38.8453 29.46C39.1037 28.8342 39.7893 28.1187 40.452 27.4262C41.6174 26.2115 42.9375 24.8352 42.9375 23C42.9375 21.1648 41.6174 19.7885 40.452 18.5738ZM38.4217 25.4803C37.5797 26.3592 36.7078 27.268 36.2455 28.3842C35.8025 29.4564 35.7832 30.6816 35.7656 31.8682C35.748 33.0986 35.7287 34.3871 35.182 34.932C34.6354 35.477 33.3557 35.498 32.1182 35.5156C30.9316 35.5332 29.7064 35.5525 28.6342 35.9955C27.518 36.4578 26.6092 37.3297 25.7303 38.1717C24.8514 39.0137 23.9531 39.875 23.25 39.875C22.5469 39.875 21.6416 39.0102 20.7697 38.1717C19.8979 37.3332 18.982 36.4578 17.8658 35.9955C16.7936 35.5525 15.5684 35.5332 14.3818 35.5156C13.1514 35.498 11.8629 35.4787 11.318 34.932C10.773 34.3854 10.752 33.1057 10.7344 31.8682C10.7168 30.6816 10.6975 29.4564 10.2545 28.3842C9.79219 27.268 8.92031 26.3592 8.07832 25.4803C7.23633 24.6014 6.375 23.7031 6.375 23C6.375 22.2969 7.23984 21.3934 8.07832 20.5197C8.9168 19.6461 9.79219 18.732 10.2545 17.6158C10.6975 16.5436 10.7168 15.3184 10.7344 14.1318C10.752 12.9014 10.7713 11.6129 11.318 11.068C11.8646 10.523 13.1443 10.502 14.3818 10.4844C15.5684 10.4668 16.7936 10.4475 17.8658 10.0045C18.982 9.54219 19.8908 8.67031 20.7697 7.82832C21.6486 6.98633 22.5469 6.125 23.25 6.125C23.9531 6.125 24.8584 6.98984 25.7303 7.82832C26.6021 8.6668 27.518 9.54219 28.6342 10.0045C29.7064 10.4475 30.9316 10.4668 32.1182 10.4844C33.3486 10.502 34.6371 10.5213 35.182 11.068C35.727 11.6146 35.748 12.8943 35.7656 14.1318C35.7832 15.3184 35.8025 16.5436 36.2455 17.6158C36.7078 18.732 37.5797 19.6408 38.4217 20.5197C39.2637 21.3986 40.125 22.2969 40.125 23C40.125 23.7031 39.2602 24.6066 38.4217 25.4803ZM21.8438 17.375C21.8438 16.5406 21.5963 15.725 21.1328 15.0312C20.6692 14.3374 20.0103 13.7967 19.2394 13.4774C18.4686 13.1581 17.6203 13.0745 16.802 13.2373C15.9836 13.4001 15.2319 13.8019 14.6419 14.3919C14.0519 14.9819 13.6501 15.7336 13.4873 16.552C13.3245 17.3703 13.4081 18.2186 13.7274 18.9894C14.0467 19.7603 14.5874 20.4192 15.2812 20.8828C15.975 21.3463 16.7906 21.5938 17.625 21.5938C18.7439 21.5938 19.8169 21.1493 20.6081 20.3581C21.3993 19.5669 21.8438 18.4939 21.8438 17.375ZM16.2188 17.375C16.2188 17.0969 16.3012 16.825 16.4557 16.5937C16.6103 16.3625 16.8299 16.1822 17.0869 16.0758C17.3438 15.9694 17.6266 15.9415 17.8993 15.9958C18.1721 16.05 18.4227 16.184 18.6194 16.3806C18.816 16.5773 18.95 16.8279 19.0042 17.1007C19.0585 17.3734 19.0306 17.6562 18.9242 17.9131C18.8178 18.1701 18.6375 18.3897 18.4063 18.5443C18.175 18.6988 17.9031 18.7812 17.625 18.7812C17.252 18.7812 16.8944 18.6331 16.6306 18.3694C16.3669 18.1056 16.2188 17.748 16.2188 17.375ZM28.875 24.4062C28.0406 24.4062 27.225 24.6537 26.5312 25.1172C25.8374 25.5808 25.2967 26.2397 24.9774 27.0106C24.6581 27.7814 24.5745 28.6297 24.7373 29.448C24.9001 30.2664 25.3019 31.0181 25.8919 31.6081C26.4819 32.1981 27.2336 32.5999 28.052 32.7627C28.8703 32.9255 29.7186 32.8419 30.4894 32.5226C31.2603 32.2033 31.9192 31.6626 32.3828 30.9688C32.8463 30.275 33.0938 29.4594 33.0938 28.625C33.0938 27.5061 32.6493 26.4331 31.8581 25.6419C31.0669 24.8507 29.9939 24.4062 28.875 24.4062ZM28.875 30.0312C28.5969 30.0312 28.325 29.9488 28.0937 29.7943C27.8625 29.6397 27.6822 29.4201 27.5758 29.1631C27.4694 28.9062 27.4415 28.6234 27.4958 28.3507C27.55 28.0779 27.684 27.8273 27.8806 27.6306C28.0773 27.434 28.3279 27.3 28.6007 27.2458C28.8734 27.1915 29.1562 27.2194 29.4131 27.3258C29.6701 27.4322 29.8897 27.6125 30.0443 27.8437C30.1988 28.075 30.2812 28.3469 30.2812 28.625C30.2812 28.998 30.1331 29.3556 29.8694 29.6194C29.6056 29.8831 29.248 30.0312 28.875 30.0312ZM31.2762 16.9637L17.2137 31.0262C17.083 31.1568 16.9279 31.2605 16.7572 31.3312C16.5865 31.4019 16.4035 31.4383 16.2188 31.4383C16.034 31.4383 15.851 31.4019 15.6803 31.3312C15.5096 31.2605 15.3545 31.1568 15.2238 31.0262C15.0932 30.8955 14.9895 30.7404 14.9188 30.5697C14.8481 30.399 14.8117 30.216 14.8117 30.0312C14.8117 29.8465 14.8481 29.6635 14.9188 29.4928C14.9895 29.3221 15.0932 29.167 15.2238 29.0363L29.2863 14.9738C29.417 14.8432 29.5721 14.7395 29.7428 14.6688C29.9135 14.5981 30.0965 14.5617 30.2812 14.5617C30.466 14.5617 30.649 14.5981 30.8197 14.6688C30.9904 14.7395 31.1455 14.8432 31.2762 14.9738C31.4068 15.1045 31.5105 15.2596 31.5812 15.4303C31.6519 15.601 31.6883 15.784 31.6883 15.9688C31.6883 16.1535 31.6519 16.3365 31.5812 16.5072C31.5105 16.6779 31.4068 16.833 31.2762 16.9637Z" fill="#263238"/>
</svg>
