<svg width="39" height="38" viewBox="0 0 39 38" fill="none" xmlns="http://www.w3.org/2000/svg">
<path d="M19.5 0.25C9.16125 0.25 0.75 8.66125 0.75 19V26.7681C0.75 28.6881 2.43187 30.25 4.5 30.25H6.375C6.87228 30.25 7.34919 30.0525 7.70082 29.7008C8.05246 29.3492 8.25 28.8723 8.25 28.375V18.7319C8.25 18.2346 8.05246 17.7577 7.70082 17.406C7.34919 17.0544 6.87228 16.8569 6.375 16.8569C5.47668 16.8569 4.78201 16.0574 5.01018 15.1885C6.69844 8.75977 12.5479 4 19.5 4C26.4521 4 32.3016 8.75977 33.9898 15.1885C34.218 16.0574 33.5233 16.8569 32.625 16.8569C32.1277 16.8569 31.6508 17.0544 31.2992 17.406C30.9475 17.7577 30.75 18.2346 30.75 18.7319V30.25C30.75 32.3181 29.0681 34 27 34H24.1875C23.6697 34 23.25 33.5803 23.25 33.0625C23.25 32.5447 22.8303 32.125 22.3125 32.125H18.5625C17.0092 32.125 15.75 33.3842 15.75 34.9375C15.75 36.4908 17.0092 37.75 18.5625 37.75H27C29.143 37.75 31.0787 36.847 32.4466 35.4015C34.6031 33.1227 38.25 29.9055 38.25 26.7681V19C38.25 8.66125 29.8387 0.25 19.5 0.25Z" fill="#263238"/>
</svg>
