<svg width="35" height="40" viewBox="0 0 35 40" fill="none" xmlns="http://www.w3.org/2000/svg">
<path d="M29.1617 38.3952C26.9002 40.506 24.4311 40.1727 22.0542 39.1728C19.5389 38.1507 17.2313 38.1063 14.5775 39.1728C11.2545 40.5504 9.50069 40.1505 7.51613 38.3952C-3.7451 27.2188 -2.08361 10.1987 10.7007 9.57657C13.816 9.7321 15.9851 11.2208 17.8082 11.3541C20.5312 10.8209 23.1388 9.28772 26.0464 9.48769C29.5309 9.75432 32.1616 11.0875 33.8923 13.4872C26.6925 17.6422 28.4002 26.7744 35 29.3296C33.6847 32.6625 31.977 35.9732 29.1386 38.4174L29.1617 38.3952ZM17.5774 9.44325C17.2313 4.48832 21.4081 0.39995 26.2079 0C26.8771 5.73261 20.8081 9.99874 17.5774 9.44325Z" fill="black"/>
</svg>
