<svg width="141" height="45" viewBox="0 0 141 45" fill="none" xmlns="http://www.w3.org/2000/svg">
<mask id="mask0_221_370" style="mask-type:luminance" maskUnits="userSpaceOnUse" x="0" y="0" width="27" height="38">
<path d="M0 0H26.2524V37.492H0V0Z" fill="white"/>
</mask>
<g mask="url(#mask0_221_370)">
<path fill-rule="evenodd" clip-rule="evenodd" d="M20.2222 6.9132H10.5124C10.468 6.66513 10.4489 6.41407 10.4489 6.15703C10.4489 3.59559 12.6504 1.51834 15.3689 1.51834C18.0874 1.51834 20.2888 3.59559 20.2888 6.15703C20.2888 6.41407 20.2698 6.66513 20.2222 6.9132ZM4.93264 37.2589H9.10079V31.2932C10.763 32.4588 12.4569 33.3405 14.1793 33.9443C15.8986 34.545 17.5513 34.8469 19.1342 34.8469C20.6441 34.8469 21.8114 34.563 22.6457 33.9981C23.4736 33.4332 23.8923 32.677 23.8923 31.7296V31.619C23.8923 31.075 23.7052 30.5998 23.3404 30.1993C22.9724 29.7988 22.4712 29.4431 21.8305 29.1323C21.1929 28.8244 20.4601 28.5494 19.6259 28.3133L17.0469 27.5751C15.924 27.2493 14.7947 26.8846 13.6528 26.4841C12.514 26.0836 11.4894 25.5636 10.5822 24.927C9.67177 24.2903 8.92949 23.5043 8.349 22.5777C7.7685 21.6482 7.47667 20.4915 7.47667 19.1077V18.9971C7.47667 17.6491 7.75899 16.4297 8.32045 15.3358C8.87874 14.2418 9.65274 13.3153 10.6393 12.5502C11.6226 11.785 12.7836 11.2022 14.1191 10.8017C15.4545 10.4012 16.8756 10.2009 18.3824 10.2009C20.3142 10.2009 22.2682 10.4908 24.2413 11.0737C24.8123 11.244 25.3674 11.4293 25.9098 11.6356V6.9132H21.84C21.8717 6.66513 21.8876 6.41407 21.8876 6.15703C21.8876 2.76469 18.9724 0.0179443 15.3721 0.0179443C11.7717 0.0179443 8.85654 2.76768 8.85654 6.15703C8.85654 6.41407 8.8724 6.66214 8.90412 6.9132H3.40368L0.00634766 37.2589H4.93581H4.93264Z" fill="#1A8B9F"/>
</g>
<mask id="mask1_221_370" style="mask-type:luminance" maskUnits="userSpaceOnUse" x="10" y="13" width="30" height="32">
<path d="M10.0112 13.7726H39.2454V45H10.0112V13.7726Z" fill="white"/>
</mask>
<g mask="url(#mask1_221_370)">
<path fill-rule="evenodd" clip-rule="evenodd" d="M26.849 18.1781C25.3771 17.3413 23.8926 16.6747 22.3827 16.1846C20.8727 15.6914 19.4833 15.4463 18.2082 15.4463C16.8537 15.4463 15.8005 15.7183 15.0487 16.2653C14.2938 16.8092 13.9163 17.5027 13.9163 18.3425V18.4501C13.9163 18.9612 14.1098 19.4065 14.4968 19.7891C14.8806 20.1717 15.3945 20.5184 16.0321 20.8292C16.6697 21.1371 17.4024 21.43 18.2367 21.702C19.0678 21.974 19.9274 22.24 20.8188 22.494C21.9417 22.8228 23.0615 23.2054 24.1812 23.6417C25.3042 24.0811 26.3192 24.6191 27.2265 25.2557C28.1337 25.8923 28.8791 26.6664 29.4596 27.578C30.037 28.4867 30.3288 29.6015 30.3288 30.9106V31.0182C30.3288 32.5515 30.037 33.8785 29.4596 35.0083C28.8791 36.1381 28.0766 37.0766 27.0488 37.8238C26.0274 38.571 24.8188 39.1359 23.4263 39.5185C22.0337 39.901 20.546 40.0923 18.96 40.0923C16.7553 40.0923 14.5222 39.7277 12.2605 39.0014C11.6197 38.7922 10.9884 38.559 10.373 38.296V45.0927H38.8142L35.3502 14.451H26.8458V18.1811L26.849 18.1781Z" fill="#1A8B9F"/>
</g>
<path fill-rule="evenodd" clip-rule="evenodd" d="M31.5019 8.45544L34.9119 8.51223L34.4615 5.30222L30.9531 5.25439L31.5019 8.45544Z" fill="#1A8B9F"/>
<path fill-rule="evenodd" clip-rule="evenodd" d="M35.1436 8.70053L35.7399 13.6829L41.1959 13.5873L40.4124 8.56006L35.1436 8.70053Z" fill="#1A8B9F"/>
<mask id="mask2_221_370" style="mask-type:luminance" maskUnits="userSpaceOnUse" x="39" y="5" width="4" height="5">
<path d="M39.2451 5.35602H42.9248V9.18174H39.2451V5.35602Z" fill="white"/>
</mask>
<g mask="url(#mask2_221_370)">
<path fill-rule="evenodd" clip-rule="evenodd" d="M39.4292 5.49647L39.8035 8.58095L43.1786 8.52416L42.6965 5.40979L39.4292 5.49647Z" fill="#1A8B9F"/>
</g>
<path fill-rule="evenodd" clip-rule="evenodd" d="M35.8003 1.96064L36.1714 5.0511L39.5497 4.99132L39.0644 1.87396L35.8003 1.96064Z" fill="#1A8B9F"/>
<path d="M45.9361 36.9516H41.6094V22.115H45.5555V22.8682C46.2216 22.1598 47.2335 21.8041 48.588 21.8041H49.2605C51.9314 21.8041 53.2701 23.1431 53.2701 25.8211V36.9516H48.9433V25.331C48.9433 25.1726 48.883 25.0321 48.7657 24.9125C48.6451 24.787 48.5024 24.7212 48.3342 24.7212H46.5579C46.3802 24.7212 46.2311 24.787 46.1138 24.9125C45.9932 25.0321 45.9361 25.1726 45.9361 25.331V36.9516Z" fill="#1A8B9F"/>
<path d="M64.2051 22.115H67.8594V36.9516H64.2051V35.8517C63.5453 36.7842 62.4351 37.2505 60.8808 37.2505H60.2083C57.5342 37.2505 56.1987 35.9175 56.1987 33.2454V25.8211C56.1987 23.1431 57.5342 21.8041 60.2083 21.8041H60.8808C62.4351 21.8041 63.5453 22.2704 64.2051 23.2029V22.115ZM63.5327 33.7236V25.331C63.5327 25.1726 63.4724 25.0321 63.355 24.9125C63.2345 24.787 63.0917 24.7212 62.9236 24.7212H61.1472C60.9696 24.7212 60.8205 24.787 60.7031 24.9125C60.5826 25.0321 60.5255 25.1726 60.5255 25.331V33.7236C60.5255 33.891 60.5826 34.0345 60.7031 34.154C60.8205 34.2736 60.9696 34.3334 61.1472 34.3334H62.9236C63.0917 34.3334 63.2345 34.2736 63.355 34.154C63.4724 34.0345 63.5327 33.891 63.5327 33.7236Z" fill="#1A8B9F"/>
<path d="M78.4392 37.2505H77.7667C76.666 37.2505 75.781 37.0054 75.1148 36.5212V41.7816H70.7881V22.115H74.4424V23.2029C75.1085 22.2704 76.2187 21.8041 77.7667 21.8041H78.4392C81.1101 21.8041 82.4488 23.1431 82.4488 25.8211V33.2454C82.4488 35.9174 81.1101 37.2505 78.4392 37.2505ZM75.1148 25.331V33.7236C75.1148 33.891 75.1719 34.0345 75.2925 34.154C75.4099 34.2736 75.5589 34.3334 75.7366 34.3334H77.513C77.6811 34.3334 77.8238 34.2736 77.9444 34.154C78.0617 34.0345 78.122 33.891 78.122 33.7236V25.331C78.122 25.1726 78.0617 25.0321 77.9444 24.9125C77.8238 24.787 77.6811 24.7212 77.513 24.7212H75.7366C75.5589 24.7212 75.4099 24.787 75.2925 24.9125C75.1719 25.0321 75.1148 25.1726 75.1148 25.331Z" fill="#1A8B9F"/>
<path d="M97.127 22.4497H92.8383V20.8955C92.8383 20.7281 92.7781 20.5846 92.6607 20.4651C92.5402 20.3455 92.3974 20.2858 92.2293 20.2858H90.4529C90.2816 20.2858 90.1389 20.3455 90.0215 20.4651C89.901 20.5846 89.8439 20.7281 89.8439 20.8955V24.3864C89.8439 24.5538 89.901 24.6973 90.0215 24.8168C90.1389 24.9364 90.2816 24.9962 90.4529 24.9962H93.3586C96.0231 25.038 97.3554 26.377 97.3554 29.0132V33.2454C97.3554 35.9174 96.0231 37.2504 93.3586 37.2504H89.552C86.8779 37.2504 85.5425 35.9174 85.5425 33.2454V31.201H89.8439V33.3888C89.8439 33.5562 89.901 33.6997 90.0215 33.8192C90.1389 33.9388 90.2816 33.9986 90.4529 33.9986H92.4577C92.6258 33.9986 92.7685 33.9388 92.8891 33.8192C93.0065 33.6997 93.0667 33.5562 93.0667 33.3888V29.5273C93.0667 29.3688 93.0065 29.2284 92.8891 29.1088C92.7685 28.9833 92.6258 28.9175 92.4577 28.9175H89.552C86.8779 28.9175 85.5425 27.5845 85.5425 24.9125V20.9792C85.5425 18.3101 86.8779 16.9741 89.552 16.9741H93.1302C95.7947 16.9741 97.127 18.3101 97.127 20.9792V22.4497Z" fill="#1A8B9F"/>
<path d="M104.487 36.9515H100.161V17.2729H104.487V22.5333C105.138 22.0491 106.023 21.804 107.139 21.804H107.812C110.483 21.804 111.821 23.143 111.821 25.821V36.9515H107.495V25.3309C107.495 25.1725 107.434 25.032 107.317 24.9124C107.196 24.7869 107.054 24.7211 106.886 24.7211H105.109C104.735 24.7211 104.529 24.9065 104.487 25.2711V36.9515Z" fill="#1A8B9F"/>
<path d="M126.411 25.8211V33.2454C126.411 35.9175 125.072 37.2505 122.401 37.2505H118.76C116.085 37.2505 114.75 35.9175 114.75 33.2454V25.8211C114.75 23.1431 116.085 21.8041 118.76 21.8041H122.401C125.072 21.8041 126.411 23.1431 126.411 25.8211ZM122.084 34.0943V24.9364C122.084 24.778 122.024 24.6376 121.906 24.518C121.786 24.3925 121.643 24.3267 121.475 24.3267H119.698C119.521 24.3267 119.372 24.3925 119.254 24.518C119.134 24.6376 119.077 24.778 119.077 24.9364V34.0943C119.077 34.2557 119.134 34.3991 119.254 34.5246C119.372 34.6442 119.521 34.704 119.698 34.704H121.475C121.643 34.704 121.786 34.6442 121.906 34.5246C122.024 34.3991 122.084 34.2557 122.084 34.0943Z" fill="#1A8B9F"/>
<path d="M136.99 37.2505H136.318C135.217 37.2505 134.332 37.0054 133.666 36.5212V41.7816H129.339V22.115H132.994V23.2029C133.66 22.2704 134.77 21.8041 136.318 21.8041H136.99C139.661 21.8041 141 23.1431 141 25.8211V33.2454C141 35.9174 139.661 37.2505 136.99 37.2505ZM133.666 25.331V33.7236C133.666 33.891 133.723 34.0345 133.844 34.154C133.961 34.2736 134.11 34.3334 134.288 34.3334H136.064C136.232 34.3334 136.375 34.2736 136.496 34.154C136.613 34.0345 136.673 33.891 136.673 33.7236V25.331C136.673 25.1726 136.613 25.0321 136.496 24.9125C136.375 24.787 136.232 24.7212 136.064 24.7212H134.288C134.11 24.7212 133.961 24.787 133.844 24.9125C133.723 25.0321 133.666 25.1726 133.666 25.331Z" fill="#1A8B9F"/>
</svg>
