<svg width="188" height="61" viewBox="0 0 188 61" fill="none" xmlns="http://www.w3.org/2000/svg">
<mask id="mask0_1_125" style="mask-type:luminance" maskUnits="userSpaceOnUse" x="0" y="0" width="36" height="51">
<path d="M0 0H35.0032V50.8225H0V0Z" fill="white"/>
</mask>
<g mask="url(#mask0_1_125)">
<path fill-rule="evenodd" clip-rule="evenodd" d="M26.963 9.37121H14.0166C13.9574 9.03494 13.932 8.69461 13.932 8.34617C13.932 4.874 16.8673 2.05818 20.4919 2.05818C24.1166 2.05818 27.0518 4.874 27.0518 8.34617C27.0518 8.69461 27.0265 9.03494 26.963 9.37121ZM6.57693 50.5065H12.1345V42.4196C14.3507 43.9997 16.6093 45.1949 18.9059 46.0134C21.1982 46.8277 23.4018 47.2369 25.5123 47.2369C27.5255 47.2369 29.082 46.852 30.1943 46.0863C31.2982 45.3205 31.8565 44.2955 31.8565 43.0112V42.8613C31.8565 42.1239 31.607 41.4797 31.1206 40.9368C30.63 40.3939 29.9617 39.9117 29.1074 39.4904C28.2572 39.0731 27.2802 38.7003 26.1679 38.3802L22.7293 37.3795C21.2321 36.9379 19.7264 36.4436 18.2038 35.9007C16.6854 35.3578 15.3193 34.6528 14.1096 33.7899C12.8958 32.9269 11.9061 31.8613 11.1321 30.6053C10.3581 29.3453 9.96897 27.7774 9.96897 25.9015V25.7516C9.96897 23.9244 10.3454 22.2713 11.094 20.7885C11.8384 19.3056 12.8704 18.0496 14.1858 17.0124C15.4969 15.9752 17.0449 15.1852 18.8255 14.6423C20.6061 14.0994 22.5009 13.8279 24.5099 13.8279C27.0857 13.8279 29.691 14.2209 32.3218 15.011C33.0831 15.2419 33.8232 15.4931 34.5465 15.7726V9.37121H29.1201C29.1624 9.03494 29.1835 8.69461 29.1835 8.34617C29.1835 3.74767 25.2966 0.0243073 20.4961 0.0243073C15.6957 0.0243073 11.8088 3.75173 11.8088 8.34617C11.8088 8.69461 11.8299 9.03088 11.8722 9.37121H4.53832L0.00854492 50.5065H6.58116H6.57693Z" fill="white"/>
</g>
<mask id="mask1_1_125" style="mask-type:luminance" maskUnits="userSpaceOnUse" x="13" y="18" width="40" height="43">
<path d="M13.3481 18.6695H52.327V61H13.3481V18.6695Z" fill="white"/>
</mask>
<g mask="url(#mask1_1_125)">
<path fill-rule="evenodd" clip-rule="evenodd" d="M35.7982 24.6415C33.8358 23.507 31.8564 22.6035 29.8431 21.9391C27.8299 21.2706 25.9774 20.9384 24.2771 20.9384C22.4712 20.9384 21.067 21.3071 20.0646 22.0485C19.058 22.7859 18.5547 23.7258 18.5547 24.8643V25.0102C18.5547 25.703 18.8127 26.3067 19.3286 26.8253C19.8404 27.3439 20.5256 27.8138 21.3757 28.2352C22.2258 28.6525 23.2029 29.0496 24.3152 29.4182C25.4233 29.7869 26.5695 30.1475 27.758 30.4919C29.2552 30.9376 30.7482 31.4562 32.2413 32.0477C33.7385 32.6433 35.0919 33.3725 36.3016 34.2355C37.5112 35.0985 38.5051 36.1479 39.2791 37.3836C40.0489 38.6152 40.438 40.1265 40.438 41.901V42.0469C40.438 44.1253 40.0489 45.9242 39.2791 47.4557C38.5051 48.9872 37.4351 50.2594 36.0647 51.2723C34.7028 52.2851 33.0914 53.0509 31.2346 53.5695C29.3779 54.0881 27.3943 54.3474 25.2795 54.3474C22.34 54.3474 19.3625 53.8531 16.3469 52.8686C15.4925 52.585 14.6508 52.2689 13.8303 51.9124V61.1256H51.7518L47.1333 19.5892H35.794V24.6455L35.7982 24.6415Z" fill="white"/>
</g>
<path fill-rule="evenodd" clip-rule="evenodd" d="M42.0027 11.4619L46.5494 11.5388L45.9488 7.18747L41.271 7.12265L42.0027 11.4619Z" fill="white"/>
<path fill-rule="evenodd" clip-rule="evenodd" d="M46.8584 11.794L47.6535 18.5479L54.9282 18.4183L53.8836 11.6036L46.8584 11.794Z" fill="white"/>
<mask id="mask2_1_125" style="mask-type:luminance" maskUnits="userSpaceOnUse" x="52" y="7" width="6" height="6">
<path d="M52.3271 7.26041H57.2333V12.4464H52.3271V7.26041Z" fill="white"/>
</mask>
<g mask="url(#mask2_1_125)">
<path fill-rule="evenodd" clip-rule="evenodd" d="M52.5725 7.45082L53.0716 11.632L57.5718 11.555L56.9289 7.33333L52.5725 7.45082Z" fill="white"/>
</g>
<path fill-rule="evenodd" clip-rule="evenodd" d="M47.7339 2.65778L48.2287 6.84707L52.7331 6.76604L52.086 2.54028L47.7339 2.65778Z" fill="white"/>
<path d="M61.2483 50.0899H55.4792V29.9781H60.7407V30.9991C61.6289 30.0388 62.9781 29.5567 64.7841 29.5567H65.6808C69.242 29.5567 71.0268 31.3718 71.0268 35.002V50.0899H65.2578V34.3375C65.2578 34.1228 65.1774 33.9324 65.021 33.7703C64.8602 33.6001 64.6699 33.511 64.4457 33.511H62.0772C61.8404 33.511 61.6416 33.6001 61.4851 33.7703C61.3244 33.9324 61.2483 34.1228 61.2483 34.3375V50.0899Z" fill="white"/>
<path d="M85.6071 29.9781H90.4795V50.0899H85.6071V48.5989C84.7274 49.863 83.247 50.4951 81.1746 50.4951H80.2779C76.7125 50.4951 74.9319 48.6881 74.9319 45.066V35.002C74.9319 31.3718 76.7125 29.5567 80.2779 29.5567H81.1746C83.247 29.5567 84.7274 30.1887 85.6071 31.4528V29.9781ZM84.7104 45.7142V34.3375C84.7104 34.1228 84.6301 33.9324 84.4736 33.7703C84.3129 33.6001 84.1225 33.511 83.8984 33.511H81.5299C81.293 33.511 81.0942 33.6001 80.9377 33.7703C80.777 33.9324 80.7009 34.1228 80.7009 34.3375V45.7142C80.7009 45.9411 80.777 46.1356 80.9377 46.2977C81.0942 46.4597 81.293 46.5408 81.5299 46.5408H83.8984C84.1225 46.5408 84.3129 46.4597 84.4736 46.2977C84.6301 46.1356 84.7104 45.9411 84.7104 45.7142Z" fill="white"/>
<path d="M104.586 50.4951H103.689C102.222 50.4951 101.041 50.1628 100.153 49.5065V56.6372H94.3843V29.9781H99.2566V31.4528C100.145 30.1887 101.625 29.5567 103.689 29.5567H104.586C108.147 29.5567 109.932 31.3718 109.932 35.002V45.066C109.932 48.6881 108.147 50.4951 104.586 50.4951ZM100.153 34.3375V45.7142C100.153 45.9411 100.229 46.1356 100.39 46.2977C100.547 46.4597 100.745 46.5408 100.982 46.5408H103.351C103.575 46.5408 103.765 46.4597 103.926 46.2977C104.082 46.1356 104.163 45.9411 104.163 45.7142V34.3375C104.163 34.1228 104.082 33.9324 103.926 33.7703C103.765 33.6001 103.575 33.511 103.351 33.511H100.982C100.745 33.511 100.547 33.6001 100.39 33.7703C100.229 33.9324 100.153 34.1228 100.153 34.3375Z" fill="white"/>
<path d="M129.503 30.4318H123.784V28.325C123.784 28.0981 123.704 27.9036 123.548 27.7416C123.387 27.5795 123.197 27.4985 122.972 27.4985H120.604C120.375 27.4985 120.185 27.5795 120.029 27.7416C119.868 27.9036 119.792 28.0981 119.792 28.325V33.0572C119.792 33.2841 119.868 33.4786 120.029 33.6406C120.185 33.8027 120.375 33.8837 120.604 33.8837H124.478C128.031 33.9404 129.807 35.7555 129.807 39.329V45.066C129.807 48.6881 128.031 50.495 124.478 50.495H119.403C115.837 50.495 114.057 48.6881 114.057 45.066V42.2947H119.792V45.2605C119.792 45.4873 119.868 45.6818 120.029 45.8439C120.185 46.0059 120.375 46.087 120.604 46.087H123.277C123.501 46.087 123.691 46.0059 123.852 45.8439C124.009 45.6818 124.089 45.4873 124.089 45.2605V40.0259C124.089 39.8111 124.009 39.6207 123.852 39.4586C123.691 39.2885 123.501 39.1993 123.277 39.1993H119.403C115.837 39.1993 114.057 37.3924 114.057 33.7703V28.4384C114.057 24.8204 115.837 23.0094 119.403 23.0094H124.174C127.726 23.0094 129.503 24.8204 129.503 28.4384V30.4318Z" fill="white"/>
<path d="M139.316 50.0898H133.547V23.4145H139.316V30.5452C140.183 29.8888 141.363 29.5566 142.852 29.5566H143.749C147.31 29.5566 149.095 31.3717 149.095 35.0019V50.0898H143.326V34.3374C143.326 34.1227 143.246 33.9323 143.089 33.7702C142.928 33.6 142.738 33.5109 142.514 33.5109H140.145C139.646 33.5109 139.371 33.7621 139.316 34.2564V50.0898Z" fill="white"/>
<path d="M168.547 35.002V45.066C168.547 48.6881 166.762 50.4951 163.201 50.4951H158.346C154.78 50.4951 153 48.6881 153 45.066V35.002C153 31.3718 154.78 29.5567 158.346 29.5567H163.201C166.762 29.5567 168.547 31.3718 168.547 35.002ZM162.778 46.2166V33.8027C162.778 33.588 162.698 33.3976 162.541 33.2355C162.381 33.0653 162.19 32.9762 161.966 32.9762H159.598C159.361 32.9762 159.162 33.0653 159.006 33.2355C158.845 33.3976 158.769 33.588 158.769 33.8027V46.2166C158.769 46.4354 158.845 46.6299 159.006 46.8001C159.162 46.9621 159.361 47.0432 159.598 47.0432H161.966C162.19 47.0432 162.381 46.9621 162.541 46.8001C162.698 46.6299 162.778 46.4354 162.778 46.2166Z" fill="white"/>
<path d="M182.654 50.4951H181.757C180.29 50.4951 179.11 50.1628 178.221 49.5065V56.6372H172.452V29.9781H177.325V31.4528C178.213 30.1887 179.693 29.5567 181.757 29.5567H182.654C186.215 29.5567 188 31.3718 188 35.002V45.066C188 48.6881 186.215 50.4951 182.654 50.4951ZM178.221 34.3375V45.7142C178.221 45.9411 178.298 46.1356 178.458 46.2977C178.615 46.4597 178.814 46.5408 179.05 46.5408H181.419C181.643 46.5408 181.833 46.4597 181.994 46.2977C182.151 46.1356 182.231 45.9411 182.231 45.7142V34.3375C182.231 34.1228 182.151 33.9324 181.994 33.7703C181.833 33.6001 181.643 33.511 181.419 33.511H179.05C178.814 33.511 178.615 33.6001 178.458 33.7703C178.298 33.9324 178.221 34.1228 178.221 34.3375Z" fill="white"/>
</svg>
