<svg width="153" height="144" viewBox="0 0 153 144" fill="none" xmlns="http://www.w3.org/2000/svg">
<path d="M76.5 144C118.75 144 153 125.354 153 102.352C153 79.3508 118.75 60.7045 76.5 60.7045C34.2502 60.7045 0 79.3508 0 102.352C0 125.354 34.2502 144 76.5 144Z" fill="#F5F5F5"/>
<path d="M106.607 88.6699L132.375 102.695C132.699 102.872 133.068 102.966 133.443 102.966C133.819 102.966 134.188 102.872 134.512 102.695L148.848 94.8844C148.945 94.8317 149.025 94.7559 149.081 94.6646C149.137 94.5733 149.166 94.4698 149.166 94.3644C149.166 94.259 149.137 94.1555 149.081 94.0643C149.025 93.973 148.945 93.8971 148.848 93.8444L123.088 79.8552C122.764 79.6792 122.397 79.5865 122.023 79.5865C121.649 79.5865 121.281 79.6792 120.957 79.8552L106.611 87.6266C106.514 87.6795 106.434 87.7555 106.378 87.8468C106.322 87.9382 106.292 88.0418 106.292 88.1473C106.291 88.2529 106.32 88.3567 106.376 88.4483C106.431 88.54 106.511 88.6164 106.607 88.6699Z" fill="#E0E0E0"/>
<path d="M86.3315 83.4535L24.3525 117.275C23.8478 117.551 23.2752 117.698 22.6917 117.701C22.1081 117.704 21.534 117.562 21.0263 117.291L4.92604 108.699C4.7588 108.609 4.61985 108.478 4.52323 108.321C4.42661 108.163 4.37573 107.985 4.37573 107.803C4.37573 107.621 4.42661 107.442 4.52323 107.285C4.61985 107.128 4.7588 106.997 4.92604 106.907L66.7885 73.2176C67.2919 72.9449 67.8616 72.7997 68.4421 72.7963C69.0226 72.7929 69.5942 72.9314 70.1011 73.1982L86.3178 81.7674C86.4766 81.8508 86.6092 81.9724 86.7019 82.1199C86.7946 82.2673 86.8442 82.4353 86.8456 82.6067C86.847 82.7781 86.8002 82.9468 86.7098 83.0956C86.6195 83.2444 86.4889 83.3679 86.3315 83.4535Z" fill="#E0E0E0"/>
<path d="M96.2519 117.398C105.645 117.398 113.26 113.252 113.26 108.137C113.26 103.023 105.645 98.8767 96.2519 98.8767C86.8586 98.8767 79.2439 103.023 79.2439 108.137C79.2439 113.252 86.8586 117.398 96.2519 117.398Z" fill="#E0E0E0"/>
<path d="M133.039 113.463C136.314 113.463 138.969 112.017 138.969 110.233C138.969 108.45 136.314 107.003 133.039 107.003C129.764 107.003 127.109 108.45 127.109 110.233C127.109 112.017 129.764 113.463 133.039 113.463Z" fill="#E0E0E0"/>
<path d="M133.231 59.3414L133.238 101.968L147.879 93.9897V51.4053L133.231 59.3414Z" fill="#E6E6E6"/>
<path d="M108.365 88.4276L133.238 101.968V59.3802L108.372 45.882L108.365 88.4276Z" fill="#EBEBEB"/>
<path d="M108.365 45.8399L133.238 59.3801L147.879 51.4053L123.016 37.9038L108.365 45.8399Z" fill="#F5F5F5"/>
<path d="M111.28 61.4281L130.179 71.7189C130.261 71.7635 130.355 71.7869 130.45 71.7868C130.545 71.7867 130.639 71.7631 130.721 71.7183C130.804 71.6735 130.872 71.6092 130.92 71.5316C130.968 71.4541 130.993 71.3661 130.994 71.2764V62.2356C130.993 62.0122 130.929 61.7932 130.808 61.6009C130.688 61.4085 130.516 61.2497 130.309 61.1406L111.441 50.8886C111.358 50.8438 111.264 50.8204 111.169 50.8207C111.073 50.8209 110.98 50.8448 110.897 50.89C110.814 50.9351 110.746 50.9999 110.698 51.0779C110.651 51.1559 110.626 51.2443 110.626 51.3343V60.3331C110.623 60.5537 110.683 60.7709 110.798 60.963C110.912 61.1552 111.079 61.3155 111.28 61.4281Z" fill="#FAFAFA"/>
<path d="M122.468 59.1638C122.403 59.1633 122.339 59.1466 122.283 59.1154L118.946 57.3066C118.87 57.2556 118.816 57.1794 118.796 57.093C118.775 57.0066 118.79 56.9162 118.837 56.8394C118.883 56.7626 118.959 56.705 119.048 56.6779C119.137 56.6509 119.234 56.6562 119.32 56.6929L122.656 58.5049C122.722 58.5458 122.773 58.6053 122.801 58.675C122.828 58.7446 122.832 58.8208 122.811 58.8926C122.79 58.9643 122.746 59.028 122.684 59.0744C122.622 59.1208 122.547 59.1476 122.468 59.1509V59.1638Z" fill="#E0E0E0"/>
<path d="M111.28 74.051L130.179 84.3385C130.261 84.3831 130.355 84.4065 130.45 84.4064C130.545 84.4063 130.639 84.3827 130.721 84.338C130.804 84.2932 130.872 84.2288 130.92 84.1513C130.968 84.0738 130.993 83.9858 130.994 83.896V74.852C130.992 74.6287 130.928 74.4099 130.808 74.2176C130.687 74.0253 130.515 73.8664 130.309 73.757L111.441 63.5276C111.358 63.483 111.265 63.4596 111.17 63.4597C111.074 63.4598 110.981 63.4834 110.898 63.5282C110.816 63.573 110.747 63.6373 110.699 63.7148C110.652 63.7924 110.626 63.8804 110.625 63.9701V72.9689C110.626 73.1872 110.687 73.4016 110.801 73.5913C110.916 73.7809 111.081 73.9393 111.28 74.051Z" fill="#FAFAFA"/>
<path d="M122.468 71.7835C122.403 71.7827 122.34 71.7672 122.283 71.7383L118.946 69.9262C118.87 69.8752 118.816 69.7991 118.796 69.7127C118.775 69.6262 118.79 69.5358 118.837 69.459C118.883 69.3822 118.959 69.3247 119.048 69.2976C119.137 69.2705 119.234 69.2758 119.32 69.3125L122.656 71.1246C122.722 71.1654 122.773 71.2249 122.801 71.2946C122.828 71.3642 122.832 71.4404 122.811 71.5122C122.79 71.584 122.746 71.6476 122.684 71.694C122.622 71.7405 122.547 71.7672 122.468 71.7706V71.7835Z" fill="#E0E0E0"/>
<path d="M111.28 86.6705L130.179 96.9581C130.261 97.0027 130.355 97.0261 130.45 97.026C130.545 97.0259 130.639 97.0023 130.721 96.9575C130.804 96.9127 130.872 96.8484 130.92 96.7709C130.968 96.6933 130.993 96.6053 130.994 96.5156V87.4716C130.992 87.2483 130.928 87.0294 130.808 86.8371C130.688 86.6448 130.515 86.4859 130.309 86.3766L111.441 76.1245C111.358 76.0799 111.265 76.0565 111.17 76.0566C111.074 76.0567 110.981 76.0804 110.899 76.1251C110.816 76.1699 110.747 76.2342 110.7 76.3118C110.652 76.3893 110.626 76.4773 110.626 76.567V85.5691C110.623 85.7907 110.681 86.0091 110.796 86.2024C110.911 86.3957 111.078 86.5572 111.28 86.6705Z" fill="#FAFAFA"/>
<path d="M122.468 84.403C122.403 84.4038 122.339 84.3882 122.283 84.3578L118.946 82.5458C118.904 82.5227 118.867 82.4919 118.837 82.4552C118.807 82.4185 118.785 82.3766 118.772 82.3319C118.759 82.2872 118.756 82.2406 118.762 82.1947C118.769 82.1488 118.785 82.1046 118.809 82.0645C118.834 82.0243 118.866 81.9892 118.905 81.961C118.944 81.9329 118.989 81.9124 119.037 81.9007C119.084 81.8889 119.134 81.8862 119.182 81.8927C119.231 81.8992 119.278 81.9148 119.32 81.9385L122.656 83.7473C122.699 83.7704 122.736 83.8012 122.766 83.8379C122.796 83.8746 122.818 83.9165 122.831 83.9612C122.843 84.0059 122.847 84.0525 122.84 84.0984C122.834 84.1443 122.818 84.1885 122.793 84.2286C122.761 84.2826 122.713 84.3273 122.656 84.3579C122.599 84.3886 122.534 84.4042 122.468 84.403Z" fill="#E0E0E0"/>
<path d="M123.913 16.418V27.8102L134.378 33.5047V22.1125L123.913 16.418Z" fill="#FAFAFA"/>
<path d="M125.047 17.0316L134.392 22.1124V32.2708L125.061 27.1932V17.0316M124.492 16.1078L123.927 16.4308V27.823L134.392 33.5046L134.957 33.1816V21.8055L124.479 16.1078H124.492Z" fill="#E0E0E0"/>
<path d="M124.479 17.3385L133.81 22.4193V32.5776L124.479 27.4968V17.3385ZM123.913 16.4147V27.8069L134.392 33.5047V22.1124L123.913 16.4179V16.4147Z" fill="#EBEBEB"/>
<path d="M125.448 25.2036L133.365 29.5124L131.025 23.7759L129.408 25.588L127.75 23.3657L125.448 25.2036Z" fill="#E0E0E0"/>
<path d="M128.195 21.6247C128.209 21.861 128.281 22.091 128.407 22.2959C128.532 22.5007 128.708 22.6747 128.918 22.8037C129.315 23.0201 129.641 22.8424 129.641 22.4096C129.627 22.1734 129.554 21.9436 129.429 21.7388C129.303 21.534 129.128 21.3599 128.918 21.2306C128.517 21.0142 128.195 21.1886 128.195 21.6247Z" fill="#E0E0E0"/>
<path d="M137.513 30.2069V39.2832L145.847 43.8214V34.7451L137.513 30.2069Z" fill="#FAFAFA"/>
<path d="M138.414 30.7011L145.847 34.7451V42.8557L138.414 38.8085V30.7334M137.962 29.9938L137.513 30.2392V39.3156L145.847 43.8247L146.3 43.5792V34.5028L137.962 29.9808V29.9938Z" fill="#E0E0E0"/>
<path d="M137.962 30.9466L145.395 34.9906V43.085L137.962 39.0378V30.9466ZM137.513 30.2069V39.2832L145.847 43.8246V34.7483L137.513 30.2263V30.2069Z" fill="#EBEBEB"/>
<path d="M138.736 37.2064L145.039 40.6399L143.179 36.0694L141.887 37.5164L140.569 35.7432L138.736 37.2064Z" fill="#E0E0E0"/>
<path d="M140.921 34.3574C140.932 34.5457 140.99 34.7289 141.09 34.8921C141.19 35.0554 141.329 35.1942 141.497 35.2974C141.815 35.4685 142.072 35.3297 142.072 34.9744C142.062 34.786 142.004 34.6026 141.904 34.4392C141.804 34.2759 141.665 34.1371 141.497 34.0344C141.178 33.8697 140.921 34.0118 140.921 34.3574Z" fill="#E0E0E0"/>
<path d="M133.389 102.003C133.389 102.003 129.744 98.6473 131.82 93.027C132.981 89.8778 136.831 87.5651 139.013 87.3455C138.287 88.1591 137.709 89.0802 137.301 90.0716L134.54 91.8029L137.078 91.0535L136.537 93.1013C136.537 93.1013 134.176 94.4483 133.827 94.7422L136.372 94.1156C136.372 94.1156 136.187 99.9167 133.389 102.003Z" fill="#1A8B9F"/>
<path opacity="0.4" d="M133.389 102.003C133.389 102.003 129.744 98.6473 131.82 93.027C132.981 89.8778 136.831 87.5651 139.013 87.3455C138.287 88.1591 137.709 89.0802 137.301 90.0716L134.54 91.8029L137.078 91.0535L136.537 93.1013C136.537 93.1013 134.176 94.4483 133.827 94.7422L136.372 94.1156C136.372 94.1156 136.187 99.9167 133.389 102.003Z" fill="black"/>
<path d="M133.389 102.003C133.389 102.003 131.501 94.9814 134.293 90.8857C134.293 90.8857 131.021 94.5001 133.389 102.003Z" fill="white"/>
<path d="M137.557 102.953L133.104 102.901H133.06L128.606 102.953C128.606 102.953 128.555 108.121 130.247 110.24C130.717 110.802 131.809 111.209 133.087 111.209C134.365 111.209 135.464 110.812 135.93 110.24C137.609 108.128 137.557 102.953 137.557 102.953Z" fill="#37474F"/>
<path d="M137.558 102.953C137.558 104.206 135.554 105.214 133.077 105.214C130.6 105.214 128.596 104.197 128.596 102.953C128.596 101.709 130.604 100.692 133.077 100.692C135.55 100.692 137.558 101.7 137.558 102.953Z" fill="#455A64"/>
<path d="M133.077 102.352C134.618 102.352 135.923 102.817 136.386 103.463C136.499 103.314 136.561 103.136 136.564 102.953C136.564 102.058 135.002 101.338 133.077 101.338C131.152 101.338 129.59 102.065 129.59 102.953C129.593 103.137 129.656 103.315 129.771 103.463C130.23 102.817 131.535 102.352 133.077 102.352Z" fill="#263238"/>
<path d="M133.077 102.352C131.535 102.352 130.23 102.817 129.771 103.463C130.23 104.109 131.535 104.578 133.077 104.578C134.618 104.578 135.924 104.109 136.386 103.463C135.924 102.817 134.618 102.352 133.077 102.352Z" fill="#E0E0E0"/>
<path d="M133.132 103.744C133.132 103.744 131.419 103.683 129.925 101.519C129.312 100.627 129.018 100.159 129.018 100.159L131.416 99.9879L128.72 99.3419L127.445 97.504L129.682 97.3457C128.76 97.0425 127.799 96.8547 126.825 96.7869C126.825 96.7869 124.77 93.3502 124.157 92.8593C125.723 92.9492 127.254 93.3349 128.66 93.9935C130.065 94.6521 131.315 95.5702 132.337 96.6933C135.718 100.476 133.635 103.841 133.132 103.744Z" fill="#1A8B9F"/>
<path d="M133.132 103.744C133.132 103.744 134.214 97.6074 127.308 93.9187C127.318 93.9187 134.474 97.1616 133.132 103.744Z" fill="white"/>
<path d="M133.132 103.744C133.132 103.744 134.697 103.841 136.249 102.023C136.889 101.27 137.201 100.873 137.201 100.873L135.047 100.508L137.544 100.185L138.876 98.6378L136.872 98.2986C137.735 98.1064 138.621 98.0228 139.507 98.0499C139.507 98.0499 141.713 95.1429 142.305 94.7424C140.89 94.6828 139.476 94.8911 138.147 95.3548C136.818 95.8186 135.6 96.5285 134.567 97.4426C131.128 100.566 132.679 103.786 133.132 103.744Z" fill="#1A8B9F"/>
<path opacity="0.2" d="M133.132 103.744C133.132 103.744 134.697 103.841 136.249 102.023C136.889 101.27 137.201 100.873 137.201 100.873L135.047 100.508L137.544 100.185L138.876 98.6378L136.872 98.2986C137.735 98.1064 138.621 98.0228 139.507 98.0499C139.507 98.0499 141.713 95.1429 142.305 94.7424C140.89 94.6828 139.476 94.8911 138.147 95.3548C136.818 95.8186 135.6 96.5285 134.567 97.4426C131.128 100.566 132.679 103.786 133.132 103.744Z" fill="black"/>
<path d="M133.132 103.744C133.132 103.744 132.769 98.1144 139.359 95.3948C139.359 95.3948 132.58 97.6849 133.132 103.744Z" fill="white"/>
<path d="M65.1237 25.365L63.565 24.7675L63.4075 24.7061H63.3903C63.1109 24.6109 62.8128 24.5747 62.5169 24.5998C62.221 24.6249 61.9345 24.7108 61.6775 24.8514L8.19058 53.9603C7.06654 54.5711 6.13305 55.4504 5.48416 56.5096C4.83526 57.5689 4.49387 58.7707 4.49439 59.9939V103.903C4.49466 104.369 4.62521 104.828 4.87292 105.232C5.12063 105.636 5.47677 105.971 5.90553 106.204C6.3343 106.437 6.82059 106.56 7.3155 106.56C7.81042 106.559 8.29654 106.436 8.72497 106.202L62.2633 77.0581C63.0272 76.6419 63.6614 76.0433 64.1022 75.3227C64.543 74.602 64.7748 73.7847 64.7743 72.9527V26.544C64.7753 26.2116 64.6856 25.8846 64.5139 25.5943L65.1237 25.365Z" fill="#1A8B9F"/>
<path opacity="0.3" d="M65.1237 25.365L63.565 24.7675L63.4075 24.7061H63.3903C63.1109 24.6109 62.8128 24.5747 62.5169 24.5998C62.221 24.6249 61.9345 24.7108 61.6775 24.8514L8.19058 53.9603C7.06654 54.5711 6.13305 55.4504 5.48416 56.5096C4.83526 57.5689 4.49387 58.7707 4.49439 59.9939V103.903C4.49466 104.369 4.62521 104.828 4.87292 105.232C5.12063 105.636 5.47677 105.971 5.90553 106.204C6.3343 106.437 6.82059 106.56 7.3155 106.56C7.81042 106.559 8.29654 106.436 8.72497 106.202L62.2633 77.0581C63.0272 76.6419 63.6614 76.0433 64.1022 75.3227C64.543 74.602 64.7748 73.7847 64.7743 72.9527V26.544C64.7753 26.2116 64.6856 25.8846 64.5139 25.5943L65.1237 25.365Z" fill="black"/>
<path d="M66.1925 27.0737V73.4986C66.1931 74.3305 65.9609 75.1478 65.5195 75.868C65.078 76.5882 64.4429 77.1859 63.6781 77.6007L10.1398 106.748C9.71091 106.981 9.22471 107.103 8.7299 107.103C8.2351 107.103 7.74907 106.98 7.32056 106.746C6.89204 106.513 6.53608 106.178 6.28837 105.774C6.04065 105.37 5.90989 104.912 5.90918 104.445V60.5172C5.90947 59.3134 6.24115 58.1303 6.87177 57.0837C7.34941 56.3074 8.03905 55.666 8.86888 55.2264L64.168 25.1195C64.7043 25.1353 65.2135 25.3456 65.5894 25.7067C65.9652 26.0677 66.1788 26.5516 66.1856 27.0575L66.1925 27.0737Z" fill="#1A8B9F"/>
<path opacity="0.1" d="M66.1925 27.0737V73.4986C66.1931 74.3305 65.9609 75.1478 65.5195 75.868C65.078 76.5882 64.4429 77.1859 63.6781 77.6007L10.1398 106.748C9.71091 106.981 9.22471 107.103 8.7299 107.103C8.2351 107.103 7.74907 106.98 7.32056 106.746C6.89204 106.513 6.53608 106.178 6.28837 105.774C6.04065 105.37 5.90989 104.912 5.90918 104.445V60.5172C5.90947 59.3134 6.24115 58.1303 6.87177 57.0837C7.34941 56.3074 8.03905 55.666 8.86888 55.2264L64.168 25.1195C64.7043 25.1353 65.2135 25.3456 65.5894 25.7067C65.9652 26.0677 66.1788 26.5516 66.1856 27.0575L66.1925 27.0737Z" fill="black"/>
<path d="M63.678 77.6007L10.1396 106.748C9.72522 106.977 9.25529 107.101 8.77524 107.108C8.29519 107.116 7.82124 107.006 7.39917 106.79L39.3667 61.4248L66.1924 73.4953C66.1925 74.3276 65.9602 75.1452 65.5188 75.8658C65.0774 76.5865 64.4425 77.1849 63.678 77.6007Z" fill="#1A8B9F"/>
<path opacity="0.2" d="M63.678 77.6007L10.1396 106.748C9.72522 106.977 9.25529 107.101 8.77524 107.108C8.29519 107.116 7.82124 107.006 7.39917 106.79L39.3667 61.4248L66.1924 73.4953C66.1925 74.3276 65.9602 75.1452 65.5188 75.8658C65.0774 76.5865 64.4425 77.1849 63.678 77.6007Z" fill="black"/>
<path d="M65.2914 25.4651L43.4602 68.5244C43.0302 69.3704 42.4196 70.1236 41.6666 70.7368C40.9137 71.35 40.0345 71.81 39.0843 72.088C38.1341 72.3661 37.1332 72.4561 36.1444 72.3526C35.1555 72.2491 34.2 71.9541 33.3376 71.4863L6.87158 57.0934C7.32334 56.337 7.98232 55.7089 8.77963 55.2749L64.1678 25.1195C64.5701 25.1285 64.9608 25.2487 65.2914 25.4651Z" fill="#1A8B9F"/>
<path d="M12.3663 43.2689L28.0486 34.7288V24.144L16.6517 30.0679C15.3537 30.7416 14.2712 31.7315 13.5174 32.9343C12.7636 34.1371 12.3661 35.5087 12.3663 36.9058V43.2689Z" fill="#1A8B9F"/>
<path opacity="0.5" d="M12.3663 43.2689L28.0486 34.7288V24.144L16.6517 30.0679C15.3537 30.7416 14.2712 31.7315 13.5174 32.9343C12.7636 34.1371 12.3661 35.5087 12.3663 36.9058V43.2689Z" fill="white"/>
<path d="M77.1851 2.27686L75.7498 1.51135C73.9269 0.51747 71.8575 -0.00394849 69.7518 2.25131e-05C67.6461 0.00399352 65.579 0.533213 63.7603 1.53396L18.9092 26.1725C16.9183 27.2657 15.2664 28.8322 14.1183 30.7156C12.9702 32.599 12.3661 34.7334 12.3663 36.9058C12.3662 35.7898 12.6786 34.6936 13.2719 33.728C13.8652 32.7624 14.7185 31.9616 15.7453 31.4067C16.7722 30.8518 17.9363 30.5624 19.1198 30.5678C20.3033 30.5732 21.4644 30.8731 22.4855 31.4374L24.3627 32.4742C26.3172 33.5529 27.9384 35.095 29.0651 36.9473C30.1919 38.7997 30.785 40.8977 30.7857 43.0331V105.87L27.7266 113.192L33.4713 109.894L79.6515 84.6292C81.2918 83.7325 82.653 82.4448 83.5988 80.8954C84.5446 79.346 85.0416 77.5893 85.04 75.8016V15.1291C85.0396 12.5257 84.3137 9.96819 82.9352 7.71258C81.5566 5.45698 79.5738 3.58249 77.1851 2.27686Z" fill="#1A8B9F"/>
<path opacity="0.7" d="M77.1851 2.27686L75.7498 1.51135C73.9269 0.51747 71.8575 -0.00394849 69.7518 2.25131e-05C67.6461 0.00399352 65.579 0.533213 63.7603 1.53396L18.9092 26.1725C16.9183 27.2657 15.2664 28.8322 14.1183 30.7156C12.9702 32.599 12.3661 34.7334 12.3663 36.9058C12.3662 35.7898 12.6786 34.6936 13.2719 33.728C13.8652 32.7624 14.7185 31.9616 15.7453 31.4067C16.7722 30.8518 17.9363 30.5624 19.1198 30.5678C20.3033 30.5732 21.4644 30.8731 22.4855 31.4374L24.3627 32.4742C26.3172 33.5529 27.9384 35.095 29.0651 36.9473C30.1919 38.7997 30.785 40.8977 30.7857 43.0331V105.87L27.7266 113.192L33.4713 109.894L79.6515 84.6292C81.2918 83.7325 82.653 82.4448 83.5988 80.8954C84.5446 79.346 85.0416 77.5893 85.04 75.8016V15.1291C85.0396 12.5257 84.3137 9.96819 82.9352 7.71258C81.5566 5.45698 79.5738 3.58249 77.1851 2.27686Z" fill="white"/>
<path d="M14.2264 107.481C14.2264 107.481 17.4431 111.916 22.6123 113.386C28.172 114.965 30.7857 111.49 30.7857 106.881V98.5441L14.2264 107.481Z" fill="#1A8B9F"/>
<path opacity="0.5" d="M14.2264 107.481C14.2264 107.481 17.4431 111.916 22.6123 113.386C28.172 114.965 30.7857 111.49 30.7857 106.881V98.5441L14.2264 107.481Z" fill="white"/>
<path d="M40.7782 62.8815C40.6672 62.8799 40.5596 62.8442 40.472 62.7798C40.3844 62.7154 40.3215 62.6257 40.2928 62.5245C40.2641 62.4233 40.2713 62.316 40.3131 62.219C40.355 62.1219 40.4293 62.0404 40.5248 61.9868L74.7805 43.3303C74.8973 43.2669 75.0359 43.2498 75.166 43.2828C75.2961 43.3158 75.407 43.3962 75.4742 43.5063C75.5414 43.6164 75.5595 43.7471 75.5245 43.8698C75.4895 43.9925 75.4043 44.097 75.2875 44.1604L41.0317 62.8169C40.9545 62.8585 40.8672 62.8808 40.7782 62.8815Z" fill="white"/>
<path d="M40.7783 70.0361C40.6669 70.0358 40.5586 70.001 40.4703 69.937C40.382 69.873 40.3185 69.7833 40.2896 69.6818C40.2608 69.5803 40.2682 69.4727 40.3107 69.3756C40.3532 69.2785 40.4285 69.1973 40.5248 69.1446L74.7806 50.4848C74.8973 50.4214 75.036 50.4043 75.1661 50.4374C75.2962 50.4704 75.407 50.5508 75.4743 50.6608C75.5415 50.7709 75.5596 50.9017 75.5246 51.0243C75.4896 51.147 75.4043 51.2515 75.2876 51.3149L41.0318 69.9876C40.953 70.0236 40.8658 70.0403 40.7783 70.0361Z" fill="white"/>
<path d="M40.7783 77.1872C40.6669 77.187 40.5586 77.1522 40.4703 77.0882C40.382 77.0241 40.3185 76.9345 40.2896 76.833C40.2608 76.7315 40.2682 76.6239 40.3107 76.5268C40.3532 76.4297 40.4285 76.3485 40.5248 76.2957L74.7806 57.6392C74.8964 57.5824 75.031 57.57 75.1563 57.6044C75.2816 57.6389 75.388 57.7176 75.4533 57.8241C75.5187 57.9307 75.5379 58.0569 75.507 58.1764C75.4761 58.296 75.3975 58.3998 75.2876 58.4661L41.0318 77.1226C40.9545 77.1642 40.8673 77.1865 40.7783 77.1872Z" fill="white"/>
<path d="M40.7783 84.3385C40.6669 84.3383 40.5586 84.3034 40.4703 84.2394C40.382 84.1754 40.3185 84.0857 40.2896 83.9842C40.2608 83.8828 40.2682 83.7751 40.3107 83.678C40.3532 83.5809 40.4285 83.4997 40.5248 83.447L74.7806 64.7904C74.8964 64.7337 75.031 64.7212 75.1563 64.7557C75.2816 64.7901 75.388 64.8688 75.4533 64.9754C75.5187 65.0819 75.5379 65.2081 75.507 65.3277C75.4761 65.4473 75.3975 65.551 75.2876 65.6173L41.0318 84.2739C40.9552 84.3169 40.8675 84.3392 40.7783 84.3385Z" fill="white"/>
<path d="M40.7783 91.4897C40.6669 91.4895 40.5586 91.4547 40.4703 91.3907C40.382 91.3266 40.3185 91.2369 40.2896 91.1355C40.2608 91.034 40.2682 90.9264 40.3107 90.8293C40.3532 90.7322 40.4285 90.651 40.5248 90.5982L74.7806 71.9417C74.8964 71.8849 75.031 71.8725 75.1563 71.9069C75.2816 71.9414 75.388 72.0201 75.4533 72.1266C75.5187 72.2332 75.5379 72.3594 75.507 72.4789C75.4761 72.5985 75.3975 72.7023 75.2876 72.7686L41.0318 91.4251C40.9552 91.4682 40.8675 91.4905 40.7783 91.4897Z" fill="white"/>
<path d="M63.274 86.3928C63.185 86.3933 63.0974 86.3715 63.0203 86.3295C62.9432 86.2874 62.8794 86.2268 62.8355 86.1537C62.7706 86.0447 62.7536 85.9159 62.7882 85.7951C62.8227 85.6744 62.9062 85.5712 63.0205 85.5077L74.7874 79.0929C74.9032 79.0362 75.0378 79.0237 75.1631 79.0582C75.2884 79.0926 75.3948 79.1713 75.4601 79.2778C75.5254 79.3844 75.5447 79.5106 75.5138 79.6302C75.4829 79.7498 75.4043 79.8535 75.2943 79.9198L63.5275 86.3314C63.45 86.372 63.3627 86.3931 63.274 86.3928Z" fill="white"/>
<path d="M64.6339 35.9562L54.7614 41.3309V36.7443C54.7614 33.5563 56.8167 29.8514 59.3551 28.469L60.0402 28.0975C62.5751 26.7151 64.6339 28.1815 64.6339 31.3695V35.9562Z" fill="#1A8B9F"/>
<path d="M66.9324 37.4775L52.4628 45.3555L54.7613 40.336L64.6338 34.9613L66.9324 37.4775Z" fill="#1A8B9F"/>
<path d="M59.7147 29.7965C59.2865 30.0291 58.9406 29.8418 58.9406 29.3766V27.5904C58.9555 27.3374 59.0333 27.0913 59.1678 26.8719C59.3023 26.6525 59.4897 26.466 59.7147 26.3275C60.1395 26.095 60.4855 26.2823 60.4855 26.7474V28.5368C60.4704 28.789 60.3929 29.0344 60.259 29.2531C60.1251 29.4719 59.9387 29.658 59.7147 29.7965Z" fill="#1A8B9F"/>
<path d="M58.0533 42.9847C58.0945 43.9117 58.8138 44.2767 59.6976 43.7954C60.1607 43.5099 60.549 43.129 60.8332 42.6814C61.1175 42.2338 61.2902 41.7312 61.3385 41.2114L58.0533 42.9847Z" fill="#1A8B9F"/>
<path d="M108.365 29.0182C112.343 29.0182 115.569 25.977 115.569 22.2254C115.569 18.4739 112.343 15.4327 108.365 15.4327C104.386 15.4327 101.161 18.4739 101.161 22.2254C101.161 25.977 104.386 29.0182 108.365 29.0182Z" fill="#1A8B9F"/>
<path d="M107.08 27.5066C107.08 27.5066 107.724 29.6642 105.117 31.6668C105.117 31.6668 109.132 31.2857 109.351 27.6875L107.08 27.5066Z" fill="#1A8B9F"/>
<path d="M109.074 22.8521H107.526L107.138 19.3475H109.461L109.074 22.8521ZM108.3 25.1131C108.157 25.1223 108.014 25.1043 107.879 25.0601C107.744 25.0159 107.62 24.9465 107.514 24.856C107.408 24.7656 107.323 24.6559 107.263 24.5336C107.203 24.4112 107.17 24.2788 107.166 24.1441C107.197 23.8808 107.329 23.6375 107.539 23.4607C107.748 23.284 108.019 23.1862 108.3 23.1862C108.581 23.1862 108.852 23.284 109.061 23.4607C109.27 23.6375 109.403 23.8808 109.434 24.1441C109.428 24.2782 109.395 24.41 109.334 24.5315C109.274 24.6531 109.189 24.762 109.083 24.8518C108.977 24.9416 108.853 25.0104 108.719 25.0542C108.584 25.098 108.442 25.1158 108.3 25.1066V25.1131Z" fill="white"/>
<path d="M94.1417 48.4821C93.4001 48.428 92.6559 48.547 91.9747 48.8287C91.2936 49.1104 90.6966 49.546 90.2365 50.0971C88.7122 51.9899 85.4853 56.4667 85.4853 56.4667C85.4853 56.4667 84.1356 55.0552 83.2518 54.0636C82.368 53.0719 81.539 52.2321 81.539 52.2321C81.4227 51.6984 81.3358 51.1594 81.2787 50.6171C81.2033 49.8484 81.0937 49.3251 80.4976 48.7986C79.9016 48.2722 79.446 47.778 79.398 47.3774C79.35 46.9769 79.0554 46.5764 78.6786 46.9866C78.3018 47.3968 78.3361 48.6565 79.124 49.4963C79.124 49.4963 77.7161 48.8794 77.0686 48.1559C76.4212 47.4324 75.5853 46.1727 75.2154 46.5215C74.8454 46.8703 74.1363 50.6268 75.2154 51.4634C76.2944 52.3 78.963 53.7244 78.963 53.7244C78.963 53.7244 82.4502 61.7736 84.9029 61.7736C87.3556 61.7736 91.4115 55.8239 91.4115 55.8239L94.1417 48.4821Z" fill="#FFA8A7"/>
<path d="M89.7878 90.5046L90.5449 101.425C90.5449 101.425 91.23 102.582 92.5489 102.582L93.7478 101.348C93.7314 99.8871 93.861 98.4282 94.1349 96.9904C94.5802 94.7843 95.4435 91.5576 95.6935 89.6938L89.7878 90.5046Z" fill="#FFA8A7"/>
<path d="M90.4695 65.8337C90.4695 65.8337 89.8666 69.5063 89.5686 73.0787C89.3322 75.9275 89.178 79.8778 89.1232 81.3604C89.1101 81.7482 89.1193 82.1364 89.1506 82.5232L89.7878 90.5046C89.7878 90.5046 93.5319 92.055 95.7003 89.6938C95.7003 89.6938 95.9641 87.407 95.5873 85.8178C95.3666 84.8145 95.3936 83.7768 95.6661 82.7848L98.0126 73.8959V65.7562L90.4695 65.8337Z" fill="#37474F"/>
<path d="M92.2886 68.8796C92.4471 69.5324 92.792 70.1317 93.2859 70.6128C93.7798 71.0939 94.404 71.4384 95.0907 71.609L96.4918 79.6517L98.5471 72.6038V68.8796H92.2886Z" fill="#263238"/>
<path d="M99.5713 92.1325L101.938 104.442H104.497C104.497 104.442 105.467 94.0705 105.415 91.241L99.5713 92.1325Z" fill="#FFA8A7"/>
<path d="M91.6649 65.753C91.6649 65.753 91.1648 70.5043 95.6729 70.921L98.0125 85.0717L99.5712 92.1292C99.5712 92.1292 103.223 94.3741 105.415 91.2378C105.415 91.2378 105.638 87.6847 104.73 85.2364C104.493 84.6004 104.395 83.9258 104.442 83.2532C104.696 79.7842 105.395 69.6064 105.052 67.3518L102.798 64.5708L91.6649 65.753Z" fill="#37474F"/>
<path d="M99.8728 48.9925H102.161L103.692 56.1986L102.685 59.2833C102.472 59.9227 102.521 60.6141 102.822 61.2213C103.507 62.6296 104.778 65.3815 105.056 67.3583C104.415 67.4026 103.774 67.282 103.2 67.0096C102.626 66.7371 102.142 66.3229 101.798 65.8111C101.798 65.8111 99.8762 68.1981 95.2003 68.1981C92.9325 68.1981 91.0896 66.6251 90.4695 65.837L91.3088 62.2646C91.3783 61.9744 91.4037 61.6764 91.3842 61.3796C91.3396 60.6399 91.254 59.1186 91.2746 57.9622C91.2746 57.9622 89.1027 57.1482 89.6611 54.6288C90.2195 52.1094 94.1418 48.4918 94.1418 48.4918L95.8237 48.5532L99.8728 48.9925Z" fill="#1A8B9F"/>
<path d="M94.354 35.1034C94.354 35.1034 91.5793 34.1958 90.901 36.8735C90.2228 39.5511 92.3124 42.1513 89.1882 43.0428C89.1882 43.0428 91.0312 44.4898 92.6549 41.7863L94.0251 47.2773C94.0251 47.2773 94.0251 47.5777 93.5387 47.8071C93.5387 47.8071 101.418 49.4608 102.935 45.7528C103.144 45.9662 103.287 46.2299 103.347 46.5148C103.408 46.7998 103.384 47.0949 103.278 47.3678C103.278 47.3678 105.604 46.4795 104.949 43.6403C104.949 43.6403 106.789 43.5919 107.227 42.1804C107.227 42.1804 104.285 42.3128 104.302 39.2508C104.322 35.7139 102.349 36.2275 102.349 36.2275C102.349 36.2275 99.9343 32.8424 94.354 35.1034Z" fill="#455A64"/>
<path d="M95.8237 46.1824V48.5435C95.8237 48.5435 93.2305 51.2632 95.7586 51.4796C98.2866 51.696 99.8693 48.9925 99.8693 48.9925V43.9989L95.8237 46.1824Z" fill="#FFA8A7"/>
<path d="M99.8281 43.2108V43.3465C98.9271 46.7057 96.5806 47.4357 95.8236 47.6068L95.7961 42.4098L99.715 42.3904L99.8281 43.2108Z" fill="#F28F8F"/>
<path d="M96.0807 35.7494C94.5838 35.8657 91.4733 36.8961 91.4288 40.6138C91.3843 44.3316 91.9837 47.1675 94.0288 47.2838C96.0739 47.4001 100.64 45.6688 100.853 40.8238C101.065 35.9788 97.5366 35.6202 96.0807 35.7494Z" fill="#FFA8A7"/>
<path d="M94.1863 42.09L94.224 44.2735L92.8606 43.902L94.1863 42.09Z" fill="#F28F8F"/>
<path d="M96.221 42.0319C96.223 42.1203 96.1971 42.2072 96.1466 42.2817C96.096 42.3562 96.0232 42.4149 95.9372 42.4502C95.8512 42.4855 95.756 42.4959 95.6637 42.4801C95.5715 42.4643 95.4863 42.4229 95.419 42.3613C95.3517 42.2997 95.3054 42.2206 95.2859 42.1341C95.2665 42.0476 95.2747 41.9576 95.3096 41.8755C95.3446 41.7935 95.4046 41.723 95.4821 41.6732C95.5596 41.6234 95.651 41.5965 95.7448 41.5958C95.8066 41.5945 95.868 41.6048 95.9255 41.6261C95.983 41.6474 96.0354 41.6793 96.0797 41.7199C96.124 41.7604 96.1593 41.8089 96.1836 41.8625C96.2078 41.916 96.2206 41.9736 96.221 42.0319Z" fill="#263238"/>
<path d="M93.1141 41.7638C93.1155 41.8221 93.1046 41.8802 93.082 41.9346C93.0595 41.989 93.0257 42.0386 92.9827 42.0807C92.9398 42.1227 92.8884 42.1563 92.8315 42.1795C92.7747 42.2027 92.7136 42.2151 92.6517 42.216C92.558 42.2179 92.4659 42.1935 92.387 42.146C92.3081 42.0985 92.2459 42.0299 92.2084 41.9491C92.1708 41.8682 92.1596 41.7786 92.1761 41.6917C92.1926 41.6048 92.2361 41.5245 92.3011 41.4609C92.3661 41.3974 92.4497 41.3534 92.5412 41.3347C92.6327 41.316 92.728 41.3233 92.8151 41.3558C92.9022 41.3882 92.9771 41.4443 93.0304 41.5169C93.0836 41.5896 93.1127 41.6755 93.1141 41.7638Z" fill="#263238"/>
<path d="M95.4605 44.9809C94.9471 45.1044 94.4416 45.2553 93.9464 45.4331C93.9464 45.4331 93.8059 44.674 94.4739 44.4996C94.672 44.4601 94.8785 44.4864 95.0583 44.5742C95.2382 44.6619 95.3803 44.8056 95.4605 44.9809Z" fill="#F28F8F"/>
<path d="M92.9427 40.1196L92.0281 40.6461C92.0281 40.6461 92.3706 40.9885 92.7338 40.7753C92.8345 40.6985 92.9083 40.5949 92.9456 40.4779C92.9829 40.3609 92.9819 40.2361 92.9427 40.1196Z" fill="#263238"/>
<path d="M98.4854 42.0189C98.4854 42.0189 98.4512 43.3949 99.4069 43.3949H101.281V40.4136C101.281 37.0673 98.5882 33.5724 92.8606 36.3373C92.8606 36.3373 92.5249 40.9918 98.4854 42.0189Z" fill="#455A64"/>
<path d="M92.172 43.3206C91.2814 43.3206 90.5552 42.7392 90.5552 42.0286C90.5552 41.318 91.2814 40.7366 92.172 40.7366C93.0627 40.7366 93.7889 41.318 93.7889 42.0286C93.7889 42.7392 93.0627 43.3206 92.172 43.3206ZM92.172 40.9853C91.4355 40.9853 90.8361 41.4504 90.8361 42.0189C90.8361 42.5874 91.4355 43.0557 92.172 43.0557C92.9085 43.0557 93.508 42.5906 93.508 42.0189C93.508 41.4472 92.9085 40.9853 92.172 40.9853Z" fill="#1A8B9F"/>
<path d="M96.149 43.3303C95.1522 43.3303 94.3369 42.7425 94.3369 42.0189C94.3369 41.2954 95.1522 40.7269 96.149 40.7269C97.1459 40.7269 97.9612 41.3148 97.9612 42.0189C97.9612 42.7231 97.1493 43.3303 96.149 43.3303ZM96.149 40.9918C95.3166 40.9918 94.6349 41.4537 94.6349 42.0189C94.6349 42.5842 95.32 43.0493 96.149 43.0493C96.978 43.0493 97.6631 42.5874 97.6631 42.0189C97.6631 41.4505 96.9849 40.9918 96.149 40.9918Z" fill="#1A8B9F"/>
<path d="M94.4877 41.88H93.6484V42.161H94.4877V41.88Z" fill="#1A8B9F"/>
<path d="M99.9789 41.88H97.814V42.161H99.9789V41.88Z" fill="#1A8B9F"/>
<path d="M99.3999 43.214C99.3882 42.8731 99.4585 42.5341 99.6055 42.2224C99.6771 42.0283 99.8073 41.8582 99.9802 41.7331C100.153 41.608 100.361 41.5333 100.578 41.5183C101.695 41.5021 101.832 42.5163 101.815 42.8749C101.764 43.8213 100.941 44.8355 99.4171 44.8581L99.3999 43.214Z" fill="#FFA8A7"/>
<path d="M102.161 48.9924C102.161 48.9924 99.5507 54.8775 103.692 56.1986L104.6 54.3704C104.6 54.3704 112.177 47.8264 114.031 46.3923C115.884 44.9581 113.506 42.8393 111.208 40.8528C108.909 38.8663 106.604 36.9445 106.604 36.9445L105.453 35.0226C105.326 34.8128 105.154 34.6306 104.947 34.488C104.741 34.3455 104.504 34.2459 104.254 34.1958C103.048 33.96 100.777 33.5497 99.5507 33.6176C97.8379 33.7048 100.424 35.7171 100.859 35.7171C101.251 35.7281 101.634 35.8337 101.97 36.0236C102.307 36.2136 102.586 36.4817 102.781 36.8024C103.302 37.6777 103.394 39.2539 105.056 39.1829L108.906 44.6061L102.161 48.9924Z" fill="#FFA8A7"/>
<path d="M108.906 44.6061L110.242 46.2179L108.159 45.0938L108.906 44.6061Z" fill="#F28F8F"/>
<path d="M85.4854 56.47L86.674 57.7652L85.9855 55.782L85.4854 56.47Z" fill="#F28F8F"/>
<path opacity="0.2" d="M95.7517 58.0785C95.7517 58.0785 99.1773 58.3401 100.239 55.2716C100.239 55.2716 100.28 59.1831 95.7517 58.0785Z" fill="black"/>
<path d="M90.2195 101.897C90.2195 101.897 89.7433 100.489 90.4798 100.414C91.2163 100.34 92.5181 100.708 92.6482 101.076C92.7278 101.32 92.7603 101.575 92.7441 101.829C93.1034 101.714 93.4436 101.552 93.7547 101.348V100.828C93.7547 100.828 94.522 100.899 94.5802 101.441C94.6385 101.984 94.6488 102.646 94.6727 103.263C94.7173 104.51 94.9125 105.343 93.4087 105.712C92.3364 105.965 91.3682 106.514 90.6271 107.288C90.113 107.799 89.4729 108.184 88.7636 108.406C88.0543 108.629 87.2977 108.683 86.561 108.564C84.2967 108.266 84.4268 106.464 85.225 105.886C85.9921 105.353 86.8124 104.893 87.6743 104.51L90.2195 101.897Z" fill="#1A8B9F"/>
<path d="M89.4111 105.879C89.3771 105.88 89.3435 105.872 89.3143 105.855C89.2852 105.839 89.2617 105.814 89.2467 105.786C88.8833 105.234 88.3054 104.839 87.6366 104.684C87.6123 104.679 87.5892 104.67 87.5688 104.656C87.5483 104.643 87.5309 104.626 87.5175 104.606C87.5041 104.586 87.495 104.564 87.4908 104.541C87.4865 104.518 87.4872 104.494 87.4928 104.471C87.498 104.449 87.508 104.427 87.522 104.408C87.5361 104.389 87.554 104.373 87.5747 104.361C87.5955 104.349 87.6186 104.34 87.6427 104.337C87.6669 104.333 87.6916 104.333 87.7154 104.339C88.1011 104.426 88.4642 104.586 88.7836 104.808C89.1031 105.03 89.3723 105.309 89.5755 105.631C89.5911 105.657 89.599 105.687 89.5983 105.718C89.5977 105.748 89.5887 105.778 89.572 105.804C89.5554 105.831 89.5318 105.852 89.5035 105.867C89.4753 105.882 89.4434 105.889 89.4111 105.889V105.879Z" fill="#FAFAFA"/>
<path d="M90.2776 105.007C90.2435 105.008 90.2099 105 90.1808 104.983C90.1517 104.967 90.1282 104.942 90.1131 104.914C89.7497 104.362 89.1718 103.967 88.5031 103.812C88.4546 103.802 88.4123 103.774 88.3854 103.735C88.3585 103.696 88.349 103.648 88.3592 103.602C88.3641 103.579 88.3738 103.558 88.3877 103.538C88.4016 103.519 88.4194 103.503 88.4402 103.49C88.461 103.477 88.4842 103.469 88.5085 103.465C88.5329 103.461 88.5578 103.461 88.5819 103.467C88.9678 103.554 89.3312 103.713 89.6506 103.935C89.9701 104.157 90.2392 104.437 90.442 104.759C90.4652 104.8 90.4704 104.848 90.4563 104.893C90.4421 104.937 90.41 104.975 90.3666 104.998C90.338 105.007 90.3076 105.01 90.2776 105.007Z" fill="#FAFAFA"/>
<path d="M91.1444 104.135C91.1105 104.135 91.0773 104.127 91.0483 104.11C91.0193 104.094 90.9957 104.07 90.98 104.041C90.6147 103.492 90.0376 103.097 89.37 102.94C89.3221 102.929 89.2806 102.901 89.2544 102.862C89.2281 102.823 89.2192 102.775 89.2295 102.73C89.234 102.707 89.2433 102.686 89.2568 102.667C89.2704 102.647 89.2879 102.631 89.3084 102.618C89.3289 102.605 89.3519 102.597 89.376 102.593C89.4001 102.589 89.4249 102.589 89.4487 102.594C89.8349 102.682 90.1987 102.841 90.5187 103.063C90.8387 103.285 91.1085 103.565 91.3123 103.886C91.3352 103.928 91.3399 103.976 91.3251 104.021C91.3103 104.066 91.2774 104.104 91.2335 104.125C91.205 104.135 91.1745 104.138 91.1444 104.135Z" fill="#FAFAFA"/>
<path d="M101.938 104.442C101.91 104.304 101.917 104.162 101.957 104.027C101.997 103.892 102.069 103.767 102.169 103.662C102.268 103.558 102.392 103.477 102.53 103.425C102.668 103.373 102.818 103.352 102.966 103.363C104.165 103.363 105.021 103.396 104.915 104.235V104.836C104.915 104.836 104.915 107.83 105.155 108.799C105.395 109.768 105.984 112.837 103.538 113.286C101.092 113.735 100.202 111.768 100.647 109.904C100.923 108.854 101.091 107.781 101.147 106.7C101.202 106.018 100.924 103.525 101.719 103.363L101.938 104.442Z" fill="#1A8B9F"/>
<path d="M104.179 108.15C104.147 108.149 104.116 108.14 104.09 108.124C103.468 107.843 102.755 107.803 102.103 108.011C102.08 108.019 102.055 108.023 102.031 108.023C102.006 108.022 101.982 108.016 101.96 108.007C101.938 107.997 101.917 107.984 101.901 107.967C101.884 107.95 101.871 107.93 101.863 107.908C101.854 107.886 101.85 107.863 101.851 107.839C101.851 107.816 101.857 107.793 101.867 107.772C101.877 107.75 101.892 107.731 101.91 107.715C101.928 107.699 101.949 107.687 101.972 107.679C102.347 107.557 102.743 107.507 103.138 107.531C103.533 107.555 103.92 107.652 104.274 107.817C104.318 107.841 104.349 107.88 104.362 107.925C104.375 107.971 104.368 108.019 104.343 108.06C104.327 108.087 104.303 108.11 104.274 108.126C104.245 108.142 104.212 108.15 104.179 108.15Z" fill="#FAFAFA"/>
<path d="M104.309 106.81C104.277 106.808 104.245 106.801 104.216 106.787C103.597 106.504 102.885 106.463 102.233 106.671C102.21 106.683 102.184 106.69 102.158 106.692C102.131 106.694 102.105 106.69 102.08 106.681C102.055 106.673 102.033 106.659 102.014 106.642C101.995 106.624 101.981 106.603 101.971 106.58C101.962 106.556 101.958 106.532 101.96 106.507C101.961 106.482 101.969 106.458 101.981 106.436C101.994 106.414 102.011 106.394 102.032 106.379C102.053 106.364 102.077 106.353 102.103 106.348C102.476 106.225 102.872 106.174 103.267 106.197C103.662 106.221 104.048 106.32 104.401 106.487C104.423 106.498 104.442 106.513 104.457 106.531C104.472 106.549 104.484 106.57 104.49 106.592C104.497 106.614 104.499 106.638 104.496 106.66C104.493 106.683 104.485 106.706 104.473 106.726C104.456 106.752 104.432 106.774 104.403 106.788C104.374 106.803 104.342 106.81 104.309 106.81Z" fill="#FAFAFA"/>
<path d="M104.439 105.489C104.407 105.487 104.375 105.479 104.347 105.466C103.725 105.185 103.013 105.144 102.36 105.35C102.336 105.362 102.31 105.37 102.284 105.372C102.257 105.374 102.23 105.37 102.205 105.362C102.18 105.353 102.157 105.339 102.138 105.321C102.119 105.303 102.105 105.282 102.095 105.258C102.086 105.235 102.082 105.209 102.084 105.184C102.086 105.159 102.094 105.135 102.107 105.112C102.12 105.09 102.138 105.071 102.16 105.057C102.182 105.042 102.207 105.032 102.233 105.027C102.606 104.903 103.002 104.852 103.397 104.876C103.792 104.9 104.178 104.998 104.532 105.166C104.553 105.177 104.572 105.192 104.587 105.21C104.603 105.228 104.614 105.249 104.621 105.271C104.627 105.293 104.629 105.316 104.626 105.339C104.623 105.362 104.616 105.384 104.603 105.405C104.586 105.431 104.562 105.452 104.533 105.467C104.504 105.482 104.472 105.489 104.439 105.489Z" fill="#FAFAFA"/>
<path d="M86.8179 104.923C86.2626 105.209 85.7302 105.533 85.225 105.892C84.4268 106.471 84.2967 108.273 86.561 108.57C87.5143 108.718 88.4928 108.581 89.3597 108.179C89.2533 107.481 88.9657 106.818 88.5222 106.25C88.0788 105.682 87.4933 105.227 86.8179 104.923Z" fill="white"/>
<path d="M93.4085 105.437C92.3362 105.691 91.368 106.239 90.6269 107.013C90.1129 107.525 89.4728 107.909 88.7635 108.132C88.0542 108.354 87.2976 108.408 86.5608 108.289C85.2933 108.124 84.7761 107.485 84.7075 106.852C84.6425 107.562 85.1083 108.373 86.5608 108.564C87.2976 108.683 88.0542 108.629 88.7635 108.406C89.4728 108.184 90.1129 107.799 90.6269 107.288C91.368 106.514 92.3362 105.965 93.4085 105.711C94.5938 105.424 94.7239 104.843 94.7034 104C94.6794 104.694 94.4602 105.195 93.4085 105.437Z" fill="#37474F"/>
<path d="M105.374 109.978C104.756 109.384 103.915 109.043 103.032 109.029C102.149 109.016 101.296 109.33 100.657 109.904C100.212 111.768 101.103 113.735 103.548 113.286C105.323 112.947 105.504 111.261 105.374 109.978Z" fill="#F5F5F5"/>
<path d="M103.562 112.921C101.596 113.283 100.637 112.081 100.565 110.628C100.483 112.243 101.431 113.677 103.562 113.286C105.141 112.995 105.456 111.619 105.419 110.418C105.367 111.519 104.967 112.659 103.562 112.921Z" fill="#455A64"/>
</svg>
