<svg width="150" height="150" viewBox="0 0 150 150" fill="none" xmlns="http://www.w3.org/2000/svg">
<g clip-path="url(#clip0_707_3602)">
<path d="M95.2266 33.7345H54.8082C53.8871 33.7357 53.0041 34.111 52.3528 34.7782C51.7015 35.4454 51.3351 36.3501 51.334 37.2937V129.321L50.8708 129.466L40.9555 132.577C40.4855 132.724 39.978 132.673 39.5442 132.437C39.1104 132.201 38.7858 131.798 38.6417 131.317L9.14823 32.6217C9.0047 32.1403 9.05362 31.6202 9.28424 31.1757C9.51486 30.7312 9.9083 30.3987 10.3781 30.2513L25.6576 25.4583L69.9533 11.5681L85.2326 6.77515C85.4651 6.70184 85.7095 6.67622 85.9517 6.69976C86.1939 6.7233 86.4292 6.79555 86.6441 6.91235C86.859 7.02916 87.0494 7.18824 87.2042 7.38048C87.359 7.57273 87.4753 7.79437 87.5465 8.03272L95.0854 33.26L95.2266 33.7345Z" fill="#1A8B9F" fill-opacity="0.1"/>
<path d="M104.046 33.26L94.9594 2.85537C94.8083 2.34877 94.5611 1.87765 94.2322 1.46894C93.9032 1.06022 93.4989 0.721923 93.0422 0.473366C92.5856 0.224809 92.0856 0.0708646 91.5709 0.0203369C91.0562 -0.0301909 90.5367 0.0236876 90.0423 0.178888L68.5604 6.91517L24.2671 20.8077L2.78509 27.5464C1.78715 27.8603 0.951567 28.567 0.461741 29.5115C-0.0280852 30.4559 -0.132131 31.5608 0.172446 32.5837L31.2269 136.494C31.4744 137.32 31.9736 138.043 32.6514 138.556C33.3292 139.07 34.1499 139.348 34.993 139.349C35.3832 139.349 35.7712 139.289 36.144 139.171L50.8699 134.553L51.3331 134.406V133.91L50.8699 134.055L36.0074 138.718C35.1266 138.993 34.1752 138.899 33.3619 138.456C32.5487 138.013 31.94 137.258 31.6693 136.357L0.617235 32.4438C0.483152 31.9969 0.436421 31.5274 0.479715 31.0621C0.523009 30.5967 0.655475 30.1447 0.869535 29.7319C1.08359 29.3191 1.37504 28.9536 1.72719 28.6563C2.07933 28.3591 2.48525 28.1359 2.9217 27.9996L24.4037 21.2609L68.6971 7.37074L90.1791 0.632091C90.5101 0.528591 90.8543 0.475818 91.2004 0.475487C91.9432 0.477196 92.666 0.72253 93.2628 1.17555C93.8597 1.62858 94.2992 2.26549 94.5171 2.99299L103.562 33.26L103.705 33.7345H104.187L104.046 33.26Z" fill="#1A8B9F" fill-opacity="0.7"/>
<path d="M28.4148 30.3288C27.9684 30.3285 27.5338 30.1816 27.1749 29.9098C26.8159 29.6379 26.5515 29.2553 26.4203 28.8182L23.4371 18.8355C23.3569 18.5674 23.3291 18.2857 23.3552 18.0065C23.3813 17.7273 23.4609 17.4562 23.5893 17.2085C23.7177 16.9608 23.8925 16.7415 24.1037 16.5631C24.3149 16.3846 24.5583 16.2505 24.8201 16.1685L65.5696 3.38787C66.0982 3.22262 66.6692 3.27898 67.1573 3.54458C67.6454 3.81019 68.0107 4.26334 68.1731 4.80458L71.1563 14.7873C71.3175 15.3289 71.2624 15.9138 71.0032 16.4139C70.7439 16.9139 70.3017 17.2881 69.7734 17.4545L29.0238 30.2351C28.8265 30.2971 28.6212 30.3287 28.4148 30.3288Z" fill="#1A8B9F" fill-opacity="0.9"/>
<path d="M44.0414 10.6667C46.5997 10.6667 48.6736 8.54207 48.6736 5.92119C48.6736 3.30031 46.5997 1.17566 44.0414 1.17566C41.4831 1.17566 39.4092 3.30031 39.4092 5.92119C39.4092 8.54207 41.4831 10.6667 44.0414 10.6667Z" fill="#1A8B9F"/>
<path d="M44.0417 8.92617C45.6617 8.92617 46.9749 7.58078 46.9749 5.92115C46.9749 4.26153 45.6617 2.91614 44.0417 2.91614C42.4217 2.91614 41.1084 4.26153 41.1084 5.92115C41.1084 7.58078 42.4217 8.92617 44.0417 8.92617Z" fill="white"/>
<path d="M139.578 138.136H61.2929C60.771 138.136 60.2706 137.923 59.9015 137.545C59.5324 137.167 59.3248 136.654 59.3242 136.119V40.0223C59.3248 39.4876 59.5324 38.975 59.9015 38.5969C60.2706 38.2188 60.771 38.0061 61.2929 38.0055H139.578C140.1 38.0061 140.6 38.2188 140.969 38.5969C141.338 38.975 141.546 39.4876 141.546 40.0223V136.119C141.546 136.654 141.338 137.167 140.969 137.545C140.6 137.923 140.1 138.136 139.578 138.136Z" fill="#1A8B9F" fill-opacity="0.1"/>
<path d="M103.562 33.26H54.8075C53.7637 33.2615 52.7631 33.687 52.025 34.4431C51.2869 35.1993 50.8716 36.2244 50.8701 37.2937V134.055L51.3333 133.91V37.2937C51.3345 36.3501 51.7008 35.4455 52.3521 34.7783C53.0034 34.1111 53.8864 33.7357 54.8075 33.7346H103.705L103.562 33.26ZM146.062 33.26H54.8075C53.7637 33.2615 52.7631 33.687 52.025 34.4431C51.2869 35.1993 50.8716 36.2244 50.8701 37.2937V145.966C50.8716 147.036 51.2869 148.061 52.025 148.817C52.7631 149.573 53.7637 149.999 54.8075 150H146.062C147.106 149.999 148.107 149.573 148.845 148.817C149.583 148.061 149.998 147.036 150 145.966V37.2937C149.998 36.2244 149.583 35.1993 148.845 34.4431C148.107 33.687 147.106 33.2615 146.062 33.26ZM149.537 145.966C149.535 146.91 149.169 147.815 148.518 148.482C147.867 149.149 146.984 149.524 146.062 149.525H54.8075C53.8864 149.524 53.0034 149.149 52.3521 148.482C51.7008 147.815 51.3345 146.91 51.3333 145.966V37.2937C51.3345 36.3501 51.7008 35.4455 52.3521 34.7783C53.0034 34.1111 53.8864 33.7357 54.8075 33.7346H146.062C146.984 33.7357 147.867 34.1111 148.518 34.7783C149.169 35.4455 149.535 36.3501 149.537 37.2937V145.966Z" fill="#1A8B9F" fill-opacity="0.7"/>
<path d="M121.743 43.7002H79.1265C78.5738 43.6995 78.044 43.4743 77.6532 43.074C77.2624 42.6736 77.0426 42.1308 77.042 41.5647V31.1245C77.0426 30.5583 77.2624 30.0155 77.6532 29.6152C78.044 29.2148 78.5738 28.9897 79.1265 28.989H121.743C122.296 28.9897 122.825 29.2148 123.216 29.6152C123.607 30.0155 123.827 30.5583 123.828 31.1245V41.5647C123.827 42.1308 123.607 42.6736 123.216 43.074C122.826 43.4743 122.296 43.6995 121.743 43.7002Z" fill="#1A8B9F" fill-opacity="0.9"/>
<path d="M100.435 29.7008C102.993 29.7008 105.067 27.5761 105.067 24.9552C105.067 22.3344 102.993 20.2097 100.435 20.2097C97.8767 20.2097 95.8027 22.3344 95.8027 24.9552C95.8027 27.5761 97.8767 29.7008 100.435 29.7008Z" fill="#1A8B9F"/>
<path d="M100.435 27.8458C101.993 27.8458 103.256 26.5517 103.256 24.9553C103.256 23.3589 101.993 22.0648 100.435 22.0648C98.8765 22.0648 97.6133 23.3589 97.6133 24.9553C97.6133 26.5517 98.8765 27.8458 100.435 27.8458Z" fill="white"/>
</g>
<defs>
<clipPath id="clip0_707_3602">
<rect width="150" height="150" fill="white"/>
</clipPath>
</defs>
</svg>
