<svg width="38" height="34" viewBox="0 0 38 34" fill="none" xmlns="http://www.w3.org/2000/svg">
<path d="M37.1868 3.11449L25.9368 32.177C25.8255 32.4648 25.6449 32.7208 25.411 32.9221C25.1771 33.1234 24.8971 33.2638 24.5959 33.331C24.2947 33.3981 23.9815 33.3899 23.6843 33.307C23.387 33.2241 23.1148 33.0691 22.8918 32.8557L16.5506 26.7901L12.6618 30.677C12.5306 30.8078 12.3636 30.8968 12.1818 30.9327C12 30.9687 11.8117 30.95 11.6406 30.8789C11.4695 30.8079 11.3232 30.6878 11.2203 30.5337C11.1174 30.3796 11.0625 30.1985 11.0624 30.0132V21.5401L1.32931 12.2307C1.08782 11.9997 0.912466 11.7083 0.821413 11.3867C0.730361 11.0652 0.726915 10.7251 0.811434 10.4018C0.895952 10.0784 1.06536 9.78352 1.30213 9.54763C1.53889 9.31175 1.8344 9.14343 2.15806 9.06011L34.9706 0.622615C35.3041 0.537159 35.6548 0.545223 35.9841 0.645923C36.3134 0.746622 36.6087 0.936067 36.8374 1.19348C37.0662 1.45089 37.2196 1.76633 37.2809 2.10519C37.3422 2.44405 37.309 2.79325 37.1849 3.11449H37.1868ZM32.6249 5.25199L12.0599 18.6601L15.3131 21.7726L32.6249 5.25199Z" fill="white"/>
</svg>
